<svg xmlns="http://www.w3.org/2000/svg" xmlns:xlink="http://www.w3.org/1999/xlink" width="100.882" height="78.452" viewBox="0 0 100.882 78.452">
  <defs>
    <clipPath id="clip-path">
      <rect id="Rettangolo_94" data-name="Rettangolo 94" width="100.882" height="78.452" fill="#fff"/>
    </clipPath>
  </defs>
  <g id="Raggruppa_449" data-name="Raggruppa 449" transform="translate(0)">
    <path id="Tracciato_575" data-name="Tracciato 575" d="M123.677,65.234h-.421v-3.72h-1.369v-.386h3.159v.386h-1.369Z" transform="translate(-28.868 -14.478)" fill="#fff"/>
    <path id="Tracciato_576" data-name="Tracciato 576" d="M130.26,61.127l-1.369,3.334-1.368-3.334h-.667v4.107h.42V61.689h.035l1.474,3.546H129l1.474-3.546h.035v3.546h.421V61.127Z" transform="translate(-30.045 -14.478)" fill="#fff"/>
    <g id="Raggruppa_448" data-name="Raggruppa 448" transform="translate(0 0)">
      <g id="Raggruppa_447" data-name="Raggruppa 447" clip-path="url(#clip-path)">
        <path id="Tracciato_577" data-name="Tracciato 577" d="M0,68.763v-.035a7.21,7.21,0,0,1,7.336-7.371,7.444,7.444,0,0,1,5.581,2.212L11.3,65.428a5.632,5.632,0,0,0-4-1.754,4.8,4.8,0,0,0-4.7,5.019v.035a4.81,4.81,0,0,0,4.7,5.054,5.661,5.661,0,0,0,4.107-1.825l1.615,1.614A7.366,7.366,0,0,1,7.231,76.1,7.2,7.2,0,0,1,0,68.763" transform="translate(0 -14.532)" fill="#fff"/>
        <path id="Tracciato_578" data-name="Tracciato 578" d="M25.872,73.058v-.737a6.872,6.872,0,0,0-2.457-.421c-1.579,0-2.527.667-2.527,1.79v.035c0,1.053.913,1.615,2.106,1.615,1.65.035,2.879-.913,2.879-2.282m-7.336.772V73.8c0-2.317,1.825-3.475,4.422-3.475a8.382,8.382,0,0,1,2.879.456V70.5c0-1.509-.948-2.351-2.668-2.351a7.963,7.963,0,0,0-3.088.667l-.667-1.931A9.267,9.267,0,0,1,23.45,66,4.742,4.742,0,0,1,27,67.2a4.36,4.36,0,0,1,1.158,3.3V76.85H25.767V75.516a4.392,4.392,0,0,1-3.51,1.58,3.313,3.313,0,0,1-3.721-3.265" transform="translate(-4.39 -15.632)" fill="#fff"/>
        <path id="Tracciato_579" data-name="Tracciato 579" d="M34.4,66.157h2.457v1.615a3.866,3.866,0,0,1,3.264-1.861,3.433,3.433,0,0,1,3.23,1.9,4.355,4.355,0,0,1,3.615-1.9c2.352,0,3.756,1.474,3.756,4.107v6.846H48.269V70.755c0-1.719-.807-2.632-2.177-2.632-1.333,0-2.281.948-2.281,2.667v6.073H41.354V70.755c0-1.684-.807-2.6-2.177-2.6S36.9,69.176,36.9,70.825V76.9H34.439V66.157Z" transform="translate(-8.148 -15.611)" fill="#fff"/>
        <path id="Tracciato_580" data-name="Tracciato 580" d="M67.657,70.376V70.34a3.122,3.122,0,1,0-6.212,0v.036a3.235,3.235,0,0,0,3.124,3.44,3.167,3.167,0,0,0,3.088-3.44m-6.142,3.685v1.685H59.057V60.9h2.458v5.9a4.269,4.269,0,0,1,3.65-2c2.527,0,4.984,2,4.984,5.582v.034c0,3.546-2.457,5.582-4.984,5.582a4.491,4.491,0,0,1-3.65-1.931" transform="translate(-13.987 -14.423)" fill="#fff"/>
        <path id="Tracciato_581" data-name="Tracciato 581" d="M76.411,65h2.457V75.743H76.411Zm-.105-3.967h2.633v2.352H76.306Z" transform="translate(-18.072 -14.456)" fill="#fff"/>
        <path id="Tracciato_582" data-name="Tracciato 582" d="M83.021,73.078V66.233h2.457v6.108c0,1.685.843,2.6,2.281,2.6a2.365,2.365,0,0,0,2.422-2.633V66.233h2.492V76.974H90.182V75.289a3.881,3.881,0,0,1-3.37,1.895c-2.386.035-3.791-1.614-3.791-4.107" transform="translate(-19.663 -15.687)" fill="#fff"/>
        <path id="Tracciato_583" data-name="Tracciato 583" d="M98.982,66.157h2.457v1.615a3.866,3.866,0,0,1,3.264-1.861,3.433,3.433,0,0,1,3.23,1.9,4.354,4.354,0,0,1,3.615-1.9c2.352,0,3.756,1.474,3.756,4.107v6.846h-2.457V70.755c0-1.719-.807-2.632-2.177-2.632-1.333,0-2.316.948-2.316,2.667v6.073H105.9V70.755c0-1.684-.807-2.6-2.177-2.6s-2.281,1.018-2.281,2.667V76.9H98.982Z" transform="translate(-23.443 -15.611)" fill="#fff"/>
        <path id="Tracciato_584" data-name="Tracciato 584" d="M.644,83.757H2.961l7.652,9.864V83.757H13.07V98.008H10.964L3.1,87.864V98.008H.644Z" transform="translate(-0.153 -19.837)" fill="#fff"/>
        <path id="Tracciato_585" data-name="Tracciato 585" d="M27.838,92.925c-.176-1.58-1.088-2.844-2.738-2.844a2.886,2.886,0,0,0-2.773,2.844ZM19.87,93.7v-.035a5.312,5.312,0,0,1,5.265-5.581c3.405,0,5.16,2.7,5.16,5.792,0,.211-.035.456-.035.7h-7.9a3.016,3.016,0,0,0,3.088,2.738,3.889,3.889,0,0,0,2.914-1.3l1.439,1.3a5.4,5.4,0,0,1-4.388,2A5.4,5.4,0,0,1,19.87,93.7" transform="translate(-4.706 -20.861)" fill="#fff"/>
        <path id="Tracciato_586" data-name="Tracciato 586" d="M36.279,95.2V89.547H34.91V87.441h1.369V84.492h2.457v2.949h2.878v2.106H38.736v5.265a1.174,1.174,0,0,0,1.333,1.334,3.09,3.09,0,0,0,1.51-.351v2a4.209,4.209,0,0,1-2.211.562c-1.79,0-3.089-.772-3.089-3.159" transform="translate(-8.268 -20.011)" fill="#fff"/>
        <path id="Tracciato_587" data-name="Tracciato 587" d="M45.167,88.346H47.66l2.176,7.371,2.387-7.406h2.106l2.386,7.406,2.177-7.371h2.492L57.874,99.157H55.663l-2.422-7.336-2.422,7.336H48.643Z" transform="translate(-10.698 -20.916)" fill="#fff"/>
        <path id="Tracciato_588" data-name="Tracciato 588" d="M76.139,93.732V93.7a3.337,3.337,0,0,0-3.3-3.475,3.219,3.219,0,0,0-3.229,3.405v.035a3.321,3.321,0,0,0,3.264,3.44,3.2,3.2,0,0,0,3.265-3.37m-8.986,0V93.7A5.723,5.723,0,0,1,78.6,93.662V93.7a5.613,5.613,0,0,1-5.757,5.581,5.546,5.546,0,0,1-5.686-5.546" transform="translate(-15.905 -20.861)" fill="#fff"/>
        <path id="Tracciato_589" data-name="Tracciato 589" d="M84.723,88.291H87.18v2.422a3.8,3.8,0,0,1,3.791-2.633v2.6h-.105c-2.141,0-3.65,1.4-3.65,4.247v4.107H84.758V88.291Z" transform="translate(-20.066 -20.86)" fill="#fff"/>
        <path id="Tracciato_590" data-name="Tracciato 590" d="M95.072,82.975h2.457v8.881l4.458-4.774h2.984l-4.283,4.388,4.423,6.353h-2.879l-3.195-4.668-1.509,1.579v3.089H95.072Z" transform="translate(-22.517 -19.652)" fill="#fff"/>
        <path id="Tracciato_591" data-name="Tracciato 591" d="M108.733,97.639l1.088-1.685a6.112,6.112,0,0,0,3.51,1.334c1.053,0,1.685-.456,1.685-1.158v-.035c0-.843-1.123-1.123-2.387-1.51-1.579-.456-3.369-1.087-3.369-3.159v-.035c0-2.036,1.685-3.265,3.826-3.265a7.22,7.22,0,0,1,3.932,1.229l-.983,1.755a6.292,6.292,0,0,0-3.019-1.018c-.947,0-1.509.456-1.509,1.053v.035c0,.807,1.158,1.123,2.422,1.51,1.58.491,3.335,1.194,3.335,3.124v.035c0,2.247-1.755,3.37-4,3.37a7.262,7.262,0,0,1-4.528-1.58" transform="translate(-25.753 -20.872)" fill="#fff"/>
        <path id="Tracciato_592" data-name="Tracciato 592" d="M67.575,12.142a10.686,10.686,0,0,0,5.23,20.008,10.876,10.876,0,0,0,3.686-.667A18.333,18.333,0,0,0,77.439,11.9a10.609,10.609,0,0,0-4.669-1.088,10.152,10.152,0,0,0-5.195,1.334" transform="translate(-14.712 -2.559)" fill="#fff"/>
        <path id="Tracciato_593" data-name="Tracciato 593" d="M49.636,21.587a18.184,18.184,0,0,0,3.685,4.633A18.2,18.2,0,0,1,51.6,23.659,17.761,17.761,0,0,1,57.569,0a18.732,18.732,0,0,0-6.423,1.334,18.378,18.378,0,0,0-1.51,20.253" transform="translate(-11.199 0)" fill="#fff"/>
        <path id="Tracciato_594" data-name="Tracciato 594" d="M45.224,23.833a20.768,20.768,0,0,1-.6-19.095A18.355,18.355,0,0,0,66.5,34.223a22.9,22.9,0,0,1-3.089.246A20.851,20.851,0,0,1,45.224,23.833" transform="translate(-8.824 -1.122)" fill="#fff"/>
        <path id="Tracciato_595" data-name="Tracciato 595" d="M64.357,7.02a12.9,12.9,0,0,0-4.984,17.586c.14.281.316.527.456.772A12.982,12.982,0,0,1,71.693,7.16a13.416,13.416,0,0,1,2.387.211,20.717,20.717,0,0,0-2-1.931A10.413,10.413,0,0,0,70.6,5.335,13.225,13.225,0,0,0,64.357,7.02" transform="translate(-13.67 -1.264)" fill="#fff"/>
        <path id="Tracciato_596" data-name="Tracciato 596" d="M54.911,22.666a15.777,15.777,0,0,0,1.474,2.177c-.035-.07-.105-.176-.14-.246A15.236,15.236,0,0,1,62.106,3.852a14.893,14.893,0,0,1,5.405-1.79A18,18,0,0,0,63.265.552,11.317,11.317,0,0,0,60.878,1.64a15.479,15.479,0,0,0-5.967,21.026" transform="translate(-12.543 -0.131)" fill="#fff"/>
      </g>
    </g>
  </g>
</svg>
