<svg id="Raggruppa_444" data-name="Raggruppa 444" xmlns="http://www.w3.org/2000/svg" xmlns:xlink="http://www.w3.org/1999/xlink" width="108.102" height="56.978" viewBox="0 0 108.102 56.978">
  <defs>
    <clipPath id="clip-path">
      <rect id="Rettangolo_92" data-name="Rettangolo 92" width="108.102" height="56.978" fill="#fff"/>
    </clipPath>
  </defs>
  <rect id="Rettangolo_91" data-name="Rettangolo 91" width="4.741" height="18.783" transform="translate(30.571 37.86)" fill="#fff"/>
  <g id="Raggruppa_443" data-name="Raggruppa 443" transform="translate(0 0)">
    <g id="Raggruppa_442" data-name="Raggruppa 442" clip-path="url(#clip-path)">
      <path id="Tracciato_561" data-name="Tracciato 561" d="M91.906,54.888a8.222,8.222,0,0,0-3.988-1.007,5.017,5.017,0,1,0,0,10.028,8.321,8.321,0,0,0,3.988-1v5.044a15.227,15.227,0,0,1-4.321.668c-5.33,0-10-3.676-10-9.729,0-5.611,4.227-9.723,10-9.723a14.342,14.342,0,0,1,4.321.672Z" transform="translate(-18.375 -11.646)" fill="#fff"/>
      <path id="Tracciato_562" data-name="Tracciato 562" d="M27.08,54.888a8.207,8.207,0,0,0-3.987-1.007,5.017,5.017,0,1,0,0,10.028,8.356,8.356,0,0,0,3.987-1v5.044a15.224,15.224,0,0,1-4.33.668c-5.324,0-10-3.676-10-9.729,0-5.611,4.234-9.723,10-9.723a14.49,14.49,0,0,1,4.33.672Z" transform="translate(-3.02 -11.646)" fill="#fff"/>
      <path id="Tracciato_563" data-name="Tracciato 563" d="M122.742,58.895a9.924,9.924,0,1,1-9.922-9.723,9.645,9.645,0,0,1,9.922,9.723m-9.922-4.94a4.942,4.942,0,1,0,4.9,4.94,4.856,4.856,0,0,0-4.9-4.94" transform="translate(-24.371 -11.646)" fill="#fff"/>
      <path id="Tracciato_564" data-name="Tracciato 564" d="M66.223,53.772a16.476,16.476,0,0,0-3.7-.571c-1.908,0-2.937.635-2.937,1.537,0,1.146,1.393,1.543,2.17,1.793l1.313.414c3.079.978,4.482,3.085,4.482,5.37,0,4.722-4.149,6.307-7.783,6.307a28.094,28.094,0,0,1-5.117-.514V63.787a17.978,17.978,0,0,0,4.482.7c2.352,0,3.442-.687,3.442-1.754,0-.954-.939-1.5-2.119-1.871-.283-.1-.717-.229-1.01-.33C56.8,59.7,54.6,58.148,54.6,55.039c0-3.514,2.634-5.875,7.005-5.875a20.342,20.342,0,0,1,4.623.6Z" transform="translate(-12.93 -11.644)" fill="#fff"/>
      <path id="Tracciato_565" data-name="Tracciato 565" d="M4.706,22.426a2.353,2.353,0,0,0-4.706,0v4.932a2.353,2.353,0,1,0,4.706,0Z" transform="translate(0 -4.757)" fill="#fff"/>
      <path id="Tracciato_566" data-name="Tracciato 566" d="M21.643,13.944a2.353,2.353,0,0,0-4.706,0v11.4a2.353,2.353,0,1,0,4.706,0Z" transform="translate(-4.011 -2.747)" fill="#fff"/>
      <path id="Tracciato_567" data-name="Tracciato 567" d="M38.584,2.344a2.357,2.357,0,0,0-4.715,0V27.29a2.357,2.357,0,0,0,4.715,0Z" transform="translate(-8.022 0)" fill="#fff"/>
      <path id="Tracciato_568" data-name="Tracciato 568" d="M55.515,13.944a2.352,2.352,0,0,0-4.7,0v11.4a2.352,2.352,0,1,0,4.7,0Z" transform="translate(-12.034 -2.747)" fill="#fff"/>
      <path id="Tracciato_569" data-name="Tracciato 569" d="M72.448,22.426a2.346,2.346,0,0,0-4.693,0v4.932a2.346,2.346,0,1,0,4.693,0Z" transform="translate(-16.047 -4.757)" fill="#fff"/>
      <path id="Tracciato_570" data-name="Tracciato 570" d="M89.393,13.944a2.347,2.347,0,0,0-4.694,0v11.4a2.347,2.347,0,1,0,4.694,0Z" transform="translate(-20.06 -2.747)" fill="#fff"/>
      <path id="Tracciato_571" data-name="Tracciato 571" d="M106.335,2.344a2.346,2.346,0,0,0-4.693,0V27.29a2.346,2.346,0,1,0,4.693,0Z" transform="translate(-24.073 0)" fill="#fff"/>
      <path id="Tracciato_572" data-name="Tracciato 572" d="M123.271,13.944a2.356,2.356,0,0,0-4.713,0v11.4a2.356,2.356,0,0,0,4.713,0Z" transform="translate(-28.08 -2.747)" fill="#fff"/>
      <path id="Tracciato_573" data-name="Tracciato 573" d="M140.194,22.426a2.347,2.347,0,0,0-4.694,0v4.932a2.347,2.347,0,1,0,4.694,0Z" transform="translate(-32.092 -4.757)" fill="#fff"/>
    </g>
  </g>
</svg>
