<svg xmlns="http://www.w3.org/2000/svg" xmlns:xlink="http://www.w3.org/1999/xlink" width="141.528" height="67.945" viewBox="0 0 141.528 67.945">
  <defs>
    <clipPath id="clip-path">
      <rect id="Rettangolo_90" data-name="Rettangolo 90" width="141.528" height="67.945" fill="#fff"/>
    </clipPath>
  </defs>
  <g id="Raggruppa_441" data-name="Raggruppa 441" transform="translate(0)">
    <g id="Raggruppa_440" data-name="Raggruppa 440" transform="translate(0 0)" clip-path="url(#clip-path)">
      <path id="Tracciato_555" data-name="Tracciato 555" d="M137.57,48.588h-2.561V66.813h2.561Zm-9.122-5.883h-18.4v2.6h7.636V67.22h3.11V45.3h7.656Zm-21.677,5.563h-2.559V66.622h2.559Zm-9.377-5.161H94.771V57.778q0,7.09-5.606,7.1-5.81,0-5.811-7.345V43.107H80.733v14.6q0,9.674,8.151,9.675,8.511,0,8.511-10.057Zm-28.95,4.136q1.877,2.635,1.876,7.507,0,4.732-1.932,7.368A6.21,6.21,0,0,1,63.1,64.748,6.008,6.008,0,0,1,58,62a12.492,12.492,0,0,1-1.948-7.3,12.276,12.276,0,0,1,2-7.319,6.161,6.161,0,0,1,5.218-2.783,5.994,5.994,0,0,1,5.174,2.647M76.06,71.336V69.362c-8.266.437-9.41-1.851-9.9-2.492a6.156,6.156,0,0,0,2.7-1.6,9.632,9.632,0,0,0,2.217-2.812,13.955,13.955,0,0,0,1.315-3.717,21.191,21.191,0,0,0,.432-4.385,14.44,14.44,0,0,0-2.585-8.94,8.075,8.075,0,0,0-6.739-3.42,8.68,8.68,0,0,0-7.306,3.523q-2.644,3.5-2.644,9.436a14.385,14.385,0,0,0,2.6,8.943A8.662,8.662,0,0,0,57.6,65.389a9.357,9.357,0,0,0,1.684,1.078,8.182,8.182,0,0,0,1.82.65,8.326,8.326,0,0,0,1.848.214c.645.867,4.185,4.769,13.1,4.006M47.47,48.394H44.91V65.9h2.56Zm-17.6,7.352q5.977,0,5.977,4.236a3.933,3.933,0,0,1-1.408,3.2,6.039,6.039,0,0,1-3.965,1.168H26.533v-8.6Zm0-10.232q4.75,0,4.751,3.482a3.809,3.809,0,0,1-1.365,3.129A5.789,5.789,0,0,1,29.5,53.231H26.533V45.514Zm.984,21.369a8.694,8.694,0,0,0,5.753-1.9,6.157,6.157,0,0,0,2.28-4.967A5.5,5.5,0,0,0,37.381,56a6.4,6.4,0,0,0-4.007-1.822v-.068a6.154,6.154,0,0,0,3.145-2.132,5.686,5.686,0,0,0,1.139-3.537,4.842,4.842,0,0,0-1.882-3.951,7.911,7.911,0,0,0-5.1-1.514H23.63v23.9ZM16.662,43.107H14.038V58.169q0,7.277-5.606,7.281-5.808,0-5.809-7.539v-14.8H0V58.1q0,9.936,8.151,9.934,8.512,0,8.511-10.325Z" transform="translate(0 -9.946)" fill="#fff"/>
      <path id="Tracciato_556" data-name="Tracciato 556" d="M160.066,86.333a3.523,3.523,0,0,0,.478.136c.165.038.33.064.491.087a3.31,3.31,0,0,0,.4.026,3.863,3.863,0,0,0,.939-.107,2.2,2.2,0,0,0,.785-.356,1.744,1.744,0,0,0,.542-.634,2.085,2.085,0,0,0,.2-.958,1.785,1.785,0,0,0-.148-.754,2.129,2.129,0,0,0-.4-.605,3.215,3.215,0,0,0-.585-.5c-.221-.149-.457-.292-.705-.427s-.455-.252-.641-.363a2.733,2.733,0,0,1-.47-.343,1.188,1.188,0,0,1-.291-.388,1.151,1.151,0,0,1-.1-.5,1.032,1.032,0,0,1,.13-.534,1.1,1.1,0,0,1,.339-.356,1.419,1.419,0,0,1,.472-.2,2.312,2.312,0,0,1,.533-.062,2.53,2.53,0,0,1,1.574.469V78.959a3.091,3.091,0,0,0-1.492-.272,3.2,3.2,0,0,0-.881.123,2.4,2.4,0,0,0-.772.372,2,2,0,0,0-.62,2.288,1.86,1.86,0,0,0,.364.569,3.052,3.052,0,0,0,.546.459q.314.208.676.411c.228.127.44.246.641.363a3.278,3.278,0,0,1,.513.362,1.439,1.439,0,0,1,.341.421,1.1,1.1,0,0,1,.123.536,1.079,1.079,0,0,1-.369.88,1.712,1.712,0,0,1-1.12.308,2.562,2.562,0,0,1-.472-.048,3.671,3.671,0,0,1-.51-.136,2.9,2.9,0,0,1-.484-.217,2.006,2.006,0,0,1-.395-.285v1.055a1.459,1.459,0,0,0,.36.185m-4.795-3.851,2.97-3.669h-1.008l-2.592,3.333a2.117,2.117,0,0,0-.184.259h-.02V78.813h-.81v7.643h.81V82.7h.02a2.528,2.528,0,0,0,.184.266l2.676,3.494h1.133Zm-6.3-2.857a1.449,1.449,0,0,1,1.042.343,1.265,1.265,0,0,1,.359.958,1.681,1.681,0,0,1-.107.615,1.324,1.324,0,0,1-.295.462,1.291,1.291,0,0,1-.446.292,1.525,1.525,0,0,1-.562.1h-1.1V79.625Zm1.745,4.533c-.094-.165-.178-.314-.254-.437a2.943,2.943,0,0,0-.228-.34,1.824,1.824,0,0,0-.247-.259,1.25,1.25,0,0,0-.3-.194v-.02a2.464,2.464,0,0,0,.636-.288,1.893,1.893,0,0,0,.791-1.039,2.54,2.54,0,0,0-.05-1.627,1.761,1.761,0,0,0-.441-.635,1.833,1.833,0,0,0-.667-.382,2.679,2.679,0,0,0-.838-.126h-2.067v7.643h.81V83.207h.668a1.171,1.171,0,0,1,.408.061.967.967,0,0,1,.337.195,1.83,1.83,0,0,1,.308.343,4.419,4.419,0,0,1,.308.508l1.16,2.142h.968Zm-7.181-3.837a3.764,3.764,0,0,1,.637,2.339,3.6,3.6,0,0,1-.656,2.3,2.182,2.182,0,0,1-1.8.821,2.092,2.092,0,0,1-1.732-.86,3.627,3.627,0,0,1-.664-2.272A3.575,3.575,0,0,1,140,80.366a2.152,2.152,0,0,1,1.774-.871,2.1,2.1,0,0,1,1.758.826m.589,5.177a4.51,4.51,0,0,0,.9-2.957,4.24,4.24,0,0,0-.877-2.786,2.838,2.838,0,0,0-2.314-1.068,3.022,3.022,0,0,0-2.46,1.1,4.5,4.5,0,0,0-.9,2.941,4.235,4.235,0,0,0,.886,2.789,2.906,2.906,0,0,0,2.36,1.068,2.959,2.959,0,0,0,2.406-1.084m-7.769-6.685L134.939,84.7a4.463,4.463,0,0,0-.133.735h-.02a4.52,4.52,0,0,0-.117-.716l-1.468-5.9h-.777l-1.531,5.863a4.849,4.849,0,0,0-.15.766h-.024a4.232,4.232,0,0,0-.117-.766l-1.472-5.863h-.893l2.027,7.643h.943l1.435-5.595a4.491,4.491,0,0,0,.124-.767h.019a3.9,3.9,0,0,0,.11.777l1.427,5.585h.952l1.957-7.643Zm-9.272,0h-4.807v.812h1.993v6.831h.812V79.625h2Zm-6.112,6.834h-2.861V82.971h2.5v-.806h-2.5v-2.54h2.705v-.812H117.3v7.643h3.673Zm-6.153-6.834h-.81V84.2a8.894,8.894,0,0,0,.048,1.123h-.021c-.04-.09-.134-.262-.28-.507l-3.467-6H109.23v7.643h.813V80.932A8.637,8.637,0,0,0,110,79.884h.029a2.709,2.709,0,0,0,.224.482l3.565,6.09h.994Z" transform="translate(-25.87 -18.637)" fill="#fff"/>
      <path id="Tracciato_557" data-name="Tracciato 557" d="M57.54,25.57s-2.56,1.039-.259,3.035c0,0,2.318,2.041,7.12,2.148a7.875,7.875,0,0,0,3.231-.5L105.941,9.941l-5.622,12.046,4.533,1.553,2.054-13.6,4.268,18.55s.488,1.677,4.751,1.993c0,0,3.819.369,5.98-.74,0,0,2.493-.9,1.417-2.573l-14.647-16.7,35.319,19.949a9.964,9.964,0,0,0,4.666.155,12.441,12.441,0,0,0,4.642-1.533s2.985-1.622.71-3.324L110.6,9.941l25.432,1.071-.007-3.828-28.2,1.744,7.267-6.388L112.236,0l-5.082,8.9L95.3,4.091,93.912,7.342,103.951,8.8l-23.969.579L76.139,15.39,104.317,9.71Z" transform="translate(-13.339 0)" fill="#fff"/>
      <path id="Tracciato_558" data-name="Tracciato 558" d="M56.962,35.273s.183-1.236,3.856-1.142a14.773,14.773,0,0,1,5.138,1.217c2.028,1.068,3.446,2.608-.855,2.957a12.188,12.188,0,0,1-5.076-.747s-2.959-.961-3.063-2.285" transform="translate(-13.491 -8.083)" fill="#fff"/>
      <path id="Tracciato_559" data-name="Tracciato 559" d="M129.216,36.287s-.037-1.245,3.6-1.8a14.817,14.817,0,0,1,5.271.3c2.184.7,3.849,1.961-.322,3.061a12.149,12.149,0,0,1-5.128.152s-3.081-.427-3.417-1.715" transform="translate(-30.604 -8.142)" fill="#fff"/>
      <path id="Tracciato_560" data-name="Tracciato 560" d="M170.151,37.164s-.266-1.22,3.2-2.434a14.879,14.879,0,0,1,5.239-.669c2.27.285,4.142,1.226.244,3.068a12.243,12.243,0,0,1-5.014,1.1s-3.106.142-3.672-1.062" transform="translate(-40.298 -8.055)" fill="#fff"/>
    </g>
  </g>
</svg>
