<svg xmlns="http://www.w3.org/2000/svg" xmlns:xlink="http://www.w3.org/1999/xlink" width="156.448" height="50.93" viewBox="0 0 156.448 50.93">
  <defs>
    <clipPath id="clip-path">
      <rect id="Rettangolo_83" data-name="Rettangolo 83" width="156.448" height="50.93" fill="none"/>
    </clipPath>
  </defs>
  <g id="Raggruppa_433" data-name="Raggruppa 433" transform="translate(0)">
    <path id="Tracciato_500" data-name="Tracciato 500" d="M8.6,18.679,0,22.292.63,23.842l7.573-3.7V58.461l1.893.662V18.679Z" transform="translate(0 -10.646)" fill="#24aac5"/>
    <g id="Raggruppa_435" data-name="Raggruppa 435" transform="translate(0 0)">
      <g id="Raggruppa_434" data-name="Raggruppa 434" transform="translate(0 0)" clip-path="url(#clip-path)">
        <path id="Tracciato_501" data-name="Tracciato 501" d="M45.97,56.633c-6.306-2.5-9.946-10.059-9.946-18.122V38.4c0-11.69,5.335-18.874,14.456-18.874,5.2,0,9.2,2.964,11.685,7.337h2.3c-2.729-5.419-7.518-9.115-13.927-9.115-10.326,0-16.522,9.753-16.522,20.71v.114c0,9.286,4.363,17.634,11.954,20.025Z" transform="translate(-19.388 -10.113)" fill="#24aac5"/>
        <path id="Tracciato_502" data-name="Tracciato 502" d="M69.369,103.752h.264v-.123a1.066,1.066,0,0,0-1.18-1.226,2.309,2.309,0,0,0-1.34.453l-.3-.491a2.727,2.727,0,0,1,1.689-.538,1.617,1.617,0,0,1,1.774,1.821v3.039h-.614v-.519a3.74,3.74,0,0,1,.019-.4h-.019a1.713,1.713,0,0,1-1.585,1.028,1.47,1.47,0,0,1-1.614-1.406c0-1.6,2.086-1.642,2.907-1.642m-1.189,2.5a1.654,1.654,0,0,0,1.453-1.764v-.208h-.274c-.745,0-2.236.028-2.236,1.076a.943.943,0,0,0,1.057.9" transform="translate(-37.881 -58.038)" fill="#fff"/>
        <path id="Tracciato_503" data-name="Tracciato 503" d="M78.225,101.94h.633v.708c0,.208-.019.377-.019.377h.019a2.02,2.02,0,0,1,1.9-1.2c1.17,0,1.585.67,1.585,1.84v3.019H81.7v-2.85c0-.745-.113-1.405-1.028-1.405a1.8,1.8,0,0,0-1.727,1.34,2.342,2.342,0,0,0-.076.642v2.274h-.642Z" transform="translate(-44.586 -58.038)" fill="#fff"/>
        <path id="Tracciato_504" data-name="Tracciato 504" d="M90.69,101.94h.633v.708c0,.208-.019.377-.019.377h.019a2.02,2.02,0,0,1,1.9-1.2c1.17,0,1.585.67,1.585,1.84v3.019h-.642v-2.85c0-.745-.113-1.405-1.028-1.405a1.8,1.8,0,0,0-1.727,1.34,2.342,2.342,0,0,0-.076.642v2.274H90.69Z" transform="translate(-51.69 -58.038)" fill="#fff"/>
        <path id="Tracciato_505" data-name="Tracciato 505" d="M103.113,97.7h.67v.8h-.67Zm.018,1.887h.642v4.746h-.642Z" transform="translate(-58.771 -55.686)" fill="#fff"/>
        <path id="Tracciato_506" data-name="Tracciato 506" d="M196.575,98.4h.642v2.3c0,.217-.019.387-.019.387h.019a1.719,1.719,0,0,1,1.613-.915c1.274,0,2.066,1.019,2.066,2.491a2.216,2.216,0,0,1-2.142,2.482,1.731,1.731,0,0,1-1.557-.925h-.019a3.654,3.654,0,0,1,.019.387v.425h-.623Zm2.133,6.181c.84,0,1.529-.708,1.529-1.916,0-1.16-.614-1.906-1.5-1.906-.793,0-1.538.566-1.538,1.915,0,.953.491,1.906,1.51,1.906" transform="translate(-112.041 -56.084)" fill="#fff"/>
        <path id="Tracciato_507" data-name="Tracciato 507" d="M207.552,108.722a1.02,1.02,0,0,0,.566.217c.415,0,.708-.34.9-.774l.292-.67-1.982-4.708h.708l1.4,3.463c.095.236.17.5.17.5h.019a4.549,4.549,0,0,1,.16-.5l1.368-3.463h.7l-2.34,5.737a1.462,1.462,0,0,1-1.368.991,1.4,1.4,0,0,1-.83-.283Z" transform="translate(-118.158 -58.585)" fill="#fff"/>
        <path id="Tracciato_508" data-name="Tracciato 508" d="M225.193,98.4h.679l1.736,3.9c.151.34.321.811.321.811h.019s.179-.471.33-.811l1.736-3.9h.67l.528,6.634h-.651l-.368-4.643c-.028-.358-.019-.925-.019-.925h-.019s-.2.585-.349.925l-1.557,3.407h-.613l-1.557-3.407c-.151-.33-.359-.943-.359-.943H225.7s.009.585-.019.943l-.368,4.643h-.651Z" transform="translate(-128.052 -56.084)" fill="#fff"/>
        <path id="Tracciato_509" data-name="Tracciato 509" d="M244.475,102.525a1.979,1.979,0,0,1,1.982,2.189c0,.114-.019.331-.019.331H242.8a1.787,1.787,0,0,0,1.84,1.878,2.207,2.207,0,0,0,1.444-.576l.292.491a2.72,2.72,0,0,1-1.755.661,2.4,2.4,0,0,1-2.481-2.482,2.317,2.317,0,0,1,2.34-2.491m1.331,1.991a1.335,1.335,0,0,0-1.349-1.454,1.61,1.61,0,0,0-1.632,1.454Z" transform="translate(-138.009 -58.436)" fill="#fff"/>
        <path id="Tracciato_510" data-name="Tracciato 510" d="M255.9,100.172a1.676,1.676,0,0,1,1.547.9h.019a3.41,3.41,0,0,1-.019-.359V98.4h.642v6.634h-.623v-.5a2.659,2.659,0,0,1,.019-.34h-.019a1.717,1.717,0,0,1-1.632.953c-1.274,0-2.066-1.019-2.066-2.491a2.21,2.21,0,0,1,2.133-2.482m.028,4.4c.793,0,1.538-.566,1.538-1.915,0-.962-.491-1.906-1.51-1.906-.84,0-1.528.708-1.528,1.906,0,1.17.613,1.915,1.5,1.915" transform="translate(-144.639 -56.084)" fill="#fff"/>
        <path id="Tracciato_511" data-name="Tracciato 511" d="M266.823,98.4h.67v.8h-.67Zm.019,1.887h.642v4.746h-.642Z" transform="translate(-152.08 -56.084)" fill="#fff"/>
        <path id="Tracciato_512" data-name="Tracciato 512" d="M273.418,104.45h.264v-.123a1.066,1.066,0,0,0-1.18-1.226,2.307,2.307,0,0,0-1.34.453l-.3-.491a2.727,2.727,0,0,1,1.689-.538,1.617,1.617,0,0,1,1.774,1.821v3.039h-.614v-.519a3.73,3.73,0,0,1,.019-.4h-.019a1.714,1.714,0,0,1-1.585,1.028,1.47,1.47,0,0,1-1.613-1.406c0-1.6,2.085-1.642,2.907-1.642m-1.189,2.5a1.655,1.655,0,0,0,1.453-1.764v-.208h-.274c-.745,0-2.236.028-2.236,1.076a.943.943,0,0,0,1.057.9" transform="translate(-154.182 -58.436)" fill="#fff"/>
        <path id="Tracciato_513" data-name="Tracciato 513" d="M281.8,101.643h-.623v-.538h.632V99.737h.632v1.368h1.189v.538h-1.189V104c0,1.113.708,1.255,1.066,1.255a1.1,1.1,0,0,0,.217-.019v.576a1.691,1.691,0,0,1-.274.019,1.542,1.542,0,0,1-1.651-1.764Z" transform="translate(-160.262 -56.847)" fill="#fff"/>
        <path id="Tracciato_514" data-name="Tracciato 514" d="M290.583,102.525a1.979,1.979,0,0,1,1.982,2.189c0,.114-.019.331-.019.331H288.9a1.787,1.787,0,0,0,1.84,1.878,2.207,2.207,0,0,0,1.444-.576l.292.491a2.718,2.718,0,0,1-1.755.661,2.4,2.4,0,0,1-2.481-2.482,2.317,2.317,0,0,1,2.34-2.491m1.331,1.991a1.336,1.336,0,0,0-1.349-1.454,1.61,1.61,0,0,0-1.632,1.454Z" transform="translate(-164.289 -58.436)" fill="#fff"/>
        <path id="Tracciato_515" data-name="Tracciato 515" d="M300.489,98.4h.642v5.369c0,.623.283.717.529.717a1.458,1.458,0,0,0,.16-.009v.576a1.619,1.619,0,0,1-.236.019c-.4,0-1.094-.123-1.094-1.161Z" transform="translate(-171.269 -56.084)" fill="#fff"/>
        <path id="Tracciato_516" data-name="Tracciato 516" d="M307.194,102.525a2.337,2.337,0,0,1,1.736.679l-.33.481a2.012,2.012,0,0,0-1.387-.575,1.82,1.82,0,0,0-1.85,1.906,1.841,1.841,0,0,0,1.868,1.906,2.091,2.091,0,0,0,1.519-.67l.293.5a2.534,2.534,0,0,1-1.85.745,2.486,2.486,0,1,1,0-4.972" transform="translate(-173.671 -58.436)" fill="#fff"/>
        <path id="Tracciato_517" data-name="Tracciato 517" d="M318.669,102.524a2.487,2.487,0,1,1-2.51,2.463,2.457,2.457,0,0,1,2.51-2.463m0,4.4a1.873,1.873,0,0,0,1.85-1.934,1.85,1.85,0,1,0-3.7,0,1.873,1.873,0,0,0,1.85,1.934" transform="translate(-180.2 -58.435)" fill="#fff"/>
        <rect id="Rettangolo_79" data-name="Rettangolo 79" width="2.227" height="2.804" transform="translate(122.504 16.03)" fill="#24aac5"/>
        <rect id="Rettangolo_80" data-name="Rettangolo 80" width="2.227" height="2.804" transform="translate(137.534 16.03)" fill="#24aac5"/>
        <path id="Tracciato_518" data-name="Tracciato 518" d="M268.724,55.664c-.327,0-.473-.146-.473-.473V44.777c0-1.329-.593-1.921-1.921-1.921h-6.7V42.5c0-3.022,1.905-3.474,3.041-3.474a3.93,3.93,0,0,1,.69.055l.192.038V37.024L263.413,37a6.078,6.078,0,0,0-.921-.06c-1.549,0-5.152.541-5.152,5.556v.358h-1.818v1.967h1.818V55.664h-3.647c-.328,0-.473-.146-.473-.473V44.777c0-1.329-.593-1.921-1.921-1.921h-3.433c-1.389,0-1.965.261-2.433,1.727l-3,9.2c-.117.364-.219.759-.292,1.063-.088-.308-.206-.71-.325-1.064l-3.585-10.871h-2.195l-3.585,10.871c-.12.363-.242.774-.331,1.085-.081-.311-.194-.722-.315-1.084l-2.971-9.2c-.468-1.466-1.045-1.727-2.433-1.727h-1.171V44.88h.536c.5,0,.719.139.857.553l4.192,12.256h2.423L236.8,47.254c.133-.371.252-.774.337-1.08.08.3.192.707.31,1.078l3.586,10.437h2.394l4.192-12.256a.757.757,0,0,1,.857-.553h1.991a.419.419,0,0,1,.473.473V55.768c0,1.328.593,1.921,1.921,1.921h6.767V44.822h5.868a.42.42,0,0,1,.473.473V55.768c0,1.328.593,1.921,1.921,1.921h2.21V55.664Z" transform="translate(-128.374 -21.055)" fill="#24aac5"/>
        <rect id="Rettangolo_81" data-name="Rettangolo 81" width="2.227" height="2.804" transform="translate(28.371 16.03)" fill="#fff"/>
        <path id="Tracciato_519" data-name="Tracciato 519" d="M74.569,56.552c-1.81-.715-3.374-1.332-3.374-2.694,0-1.607,1.669-1.945,3.07-1.945.766,0,2.348.32,2.348,1.31v.854h2.169v-1.4c0-2.044-2.736-2.786-4.575-2.786-3.285,0-5.326,1.565-5.326,4.084,0,2.671,2.526,3.688,4.756,4.585,1.813.73,3.38,1.36,3.38,2.685,0,1.539-1.505,2.117-2.794,2.145l-7.8,0c-.328,0-.473-.146-.473-.473V52.156c0-1.328-.593-1.921-1.921-1.921h-2.21V52.26h1.373a.419.419,0,0,1,.473.473V63.494c0,1.328.593,1.921,1.921,1.921h8.525c3.027-.006,5.224-1.784,5.224-4.229,0-2.753-2.53-3.752-4.762-4.634" transform="translate(-35.232 -28.435)" fill="#fff"/>
        <path id="Tracciato_520" data-name="Tracciato 520" d="M134.69,56.66c-.327,0-.473-.146-.473-.473V49.292c0-3.948-1.6-5.787-5.037-5.787a6.4,6.4,0,0,0-5.59,3.1c.006-.155.011-.331.011-.518V39.944c0-1.289-.593-1.863-1.921-1.863h-2.21v2.025h1.373a.42.42,0,0,1,.473.473V56.66h-8.181l-.148-.022a5.458,5.458,0,0,1-5.024-5.7,5.4,5.4,0,0,1,5.464-5.695c1.133,0,3.156.544,3.156,1.627v1h2.169v-1.46c0-2.366-3.266-3.248-5.325-3.248a7.621,7.621,0,0,0-7.806,7.777,7.447,7.447,0,0,0,7.191,7.721v.028H123.6V51.571a6.63,6.63,0,0,1,.225-1.89,5.357,5.357,0,0,1,5.1-4.007c2.508,0,3.012,1.583,3.012,4.137v6.953c0,1.328.593,1.921,1.921,1.921h2.112V56.66Z" transform="translate(-60.2 -21.705)" fill="#fff"/>
        <rect id="Rettangolo_82" data-name="Rettangolo 82" width="2.227" height="2.804" transform="translate(78.02 16.03)" fill="#fff"/>
        <path id="Tracciato_521" data-name="Tracciato 521" d="M197.017,63.044c-.328,0-.473-.146-.473-.473V55.618c0-2.459-.606-5.729-5.845-5.729-1.361,0-4.892.47-4.892,2.613v1.546H188V52.964c0-.9,1.974-1.108,2.666-1.108,2.616,0,3.589,1.067,3.589,3.935l-.647.012c-6,0-9.047,1.733-9.047,5.153a4.15,4.15,0,0,0,.733,2.435h-3.425c-.327,0-.473-.146-.473-.473V52.157c0-1.329-.593-1.921-1.921-1.921h-2.21V52.26h1.373a.42.42,0,0,1,.474.473V63.494c0,1.328.592,1.921,1.921,1.921h8.784V63.39h-.31a2.624,2.624,0,0,1-2.6-2.551c0-3.156,4.678-3.156,6.676-3.156h.675v5.528c.01,1.285.681,1.858,1.979,1.858h2.152V63.044Z" transform="translate(-101.038 -28.435)" fill="#fff"/>
        <path id="Tracciato_522" data-name="Tracciato 522" d="M327.268,31.021c0,.015,0,.029,0,.044h2.3c0-.015,0-.029,0-.044a9.588,9.588,0,0,0-9.6-9.6c-.024,0-.046,0-.068.007v2.29c.023,0,.045.007.068.007a7.283,7.283,0,0,1,7.293,7.293" transform="translate(-182.336 -12.211)" fill="#24aac5"/>
        <path id="Tracciato_523" data-name="Tracciato 523" d="M331.874,24.914c0,.015,0,.03,0,.045h2.295c0-.015,0-.029,0-.045a14.189,14.189,0,0,0-14.2-14.2c-.023,0-.046,0-.068.006v2.29c.023,0,.045.007.069.007a11.885,11.885,0,0,1,11.9,11.9" transform="translate(-182.336 -6.105)" fill="#24aac5"/>
        <path id="Tracciato_524" data-name="Tracciato 524" d="M336.48,18.809c0,.015,0,.03,0,.045h2.294c0-.015,0-.029,0-.045A18.79,18.79,0,0,0,319.974,0c-.023,0-.046,0-.068.007V2.3c.023,0,.045.007.069.007A16.487,16.487,0,0,1,336.48,18.809" transform="translate(-182.336 0.001)" fill="#24aac5"/>
      </g>
    </g>
  </g>
</svg>
