<svg xmlns="http://www.w3.org/2000/svg" xmlns:xlink="http://www.w3.org/1999/xlink" width="181.395" height="70.537" viewBox="0 0 181.395 70.537">
  <defs>
    <clipPath id="clip-path">
      <rect id="Rettangolo_88" data-name="Rettangolo 88" width="181.395" height="70.537" fill="none"/>
    </clipPath>
  </defs>
  <g id="Raggruppa_436" data-name="Raggruppa 436" transform="translate(0 0)">
    <g id="Raggruppa_436-2" data-name="Raggruppa 436" transform="translate(0 0)" clip-path="url(#clip-path)">
      <path id="Tracciato_525" data-name="Tracciato 525" d="M134.76,97.4h.9v3.216c0,.3-.026.541-.026.541h.026a2.4,2.4,0,0,1,2.254-1.278c1.78,0,2.886,1.423,2.886,3.479,0,2.1-1.252,3.466-2.992,3.466a2.417,2.417,0,0,1-2.174-1.291H135.6a5.1,5.1,0,0,1,.026.54v.593h-.87Zm2.979,8.633c1.173,0,2.135-.989,2.135-2.676,0-1.621-.857-2.662-2.1-2.662-1.107,0-2.149.791-2.149,2.675,0,1.331.685,2.663,2.109,2.663" transform="translate(-53.815 -38.895)" fill="#004cac"/>
      <path id="Tracciato_526" data-name="Tracciato 526" d="M145.834,110.077a1.425,1.425,0,0,0,.79.3c.58,0,.989-.475,1.252-1.081l.408-.936-2.768-6.577h.989l1.95,4.837c.132.33.237.7.237.7h.026a6.355,6.355,0,0,1,.224-.7l1.911-4.837h.975l-3.268,8.013a2.042,2.042,0,0,1-1.911,1.384,1.961,1.961,0,0,1-1.159-.4Z" transform="translate(-58.1 -40.647)" fill="#004cac"/>
      <path id="Tracciato_527" data-name="Tracciato 527" d="M163.589,97.4h.948l2.425,5.444c.211.475.448,1.133.448,1.133h.026s.25-.658.461-1.133l2.425-5.444h.936l.738,9.266h-.91l-.514-6.485c-.04-.5-.026-1.292-.026-1.292h-.026s-.277.818-.488,1.292l-2.174,4.758H167l-2.174-4.758c-.211-.461-.5-1.318-.5-1.318H164.3s.013.817-.026,1.318l-.514,6.485h-.909Z" transform="translate(-65.032 -38.895)" fill="#004cac"/>
      <path id="Tracciato_528" data-name="Tracciato 528" d="M183.588,101.525a2.764,2.764,0,0,1,2.768,3.057c0,.159-.026.462-.026.462h-5.088a2.5,2.5,0,0,0,2.57,2.622,3.083,3.083,0,0,0,2.017-.8l.408.685a3.8,3.8,0,0,1-2.452.923A3.351,3.351,0,0,1,180.32,105a3.236,3.236,0,0,1,3.268-3.479m1.858,2.781a1.865,1.865,0,0,0-1.885-2.03,2.248,2.248,0,0,0-2.28,2.03Z" transform="translate(-72.008 -40.543)" fill="#004cac"/>
      <path id="Tracciato_529" data-name="Tracciato 529" d="M194.931,99.876a2.341,2.341,0,0,1,2.161,1.252h.026a4.771,4.771,0,0,1-.026-.5V97.4h.9v9.266h-.87v-.7a3.708,3.708,0,0,1,.026-.475h-.026a2.4,2.4,0,0,1-2.28,1.332c-1.78,0-2.886-1.424-2.886-3.48,0-2.1,1.239-3.466,2.979-3.466m.039,6.142c1.108,0,2.149-.79,2.149-2.675,0-1.344-.685-2.663-2.109-2.663-1.173,0-2.135.989-2.135,2.663,0,1.634.856,2.675,2.1,2.675" transform="translate(-76.653 -38.895)" fill="#004cac"/>
      <path id="Tracciato_530" data-name="Tracciato 530" d="M205.009,97.4h.936v1.12h-.936Zm.026,2.636h.9v6.63h-.9Z" transform="translate(-81.867 -38.895)" fill="#004cac"/>
      <path id="Tracciato_531" data-name="Tracciato 531" d="M212.756,104.214h.369v-.172a1.489,1.489,0,0,0-1.648-1.713,3.223,3.223,0,0,0-1.871.633l-.422-.686a3.809,3.809,0,0,1,2.359-.751,2.258,2.258,0,0,1,2.478,2.543v4.244h-.857v-.725a5.209,5.209,0,0,1,.026-.553h-.026a2.394,2.394,0,0,1-2.214,1.436,2.053,2.053,0,0,1-2.254-1.964c0-2.241,2.913-2.293,4.06-2.293m-1.661,3.492a2.311,2.311,0,0,0,2.03-2.465v-.29h-.383c-1.041,0-3.123.04-3.123,1.5a1.317,1.317,0,0,0,1.476,1.252" transform="translate(-83.34 -40.543)" fill="#004cac"/>
      <path id="Tracciato_532" data-name="Tracciato 532" d="M220.232,101.4h-.87v-.751h.883V98.737h.883v1.911h1.661v.751h-1.661v3.295c0,1.555.989,1.753,1.49,1.753a1.54,1.54,0,0,0,.3-.026v.8a2.361,2.361,0,0,1-.383.026,2.153,2.153,0,0,1-2.307-2.465Z" transform="translate(-87.599 -39.429)" fill="#004cac"/>
      <path id="Tracciato_533" data-name="Tracciato 533" d="M229.7,101.525a2.764,2.764,0,0,1,2.768,3.057c0,.159-.026.462-.026.462h-5.088a2.5,2.5,0,0,0,2.57,2.622,3.083,3.083,0,0,0,2.017-.8l.408.685a3.8,3.8,0,0,1-2.451.923A3.351,3.351,0,0,1,226.429,105a3.236,3.236,0,0,1,3.268-3.479m1.858,2.781a1.866,1.866,0,0,0-1.885-2.03,2.248,2.248,0,0,0-2.28,2.03Z" transform="translate(-90.421 -40.543)" fill="#004cac"/>
      <path id="Tracciato_534" data-name="Tracciato 534" d="M238.675,97.4h.9v7.5c0,.87.4,1,.738,1a2.036,2.036,0,0,0,.224-.013v.8a2.261,2.261,0,0,1-.33.026c-.553,0-1.529-.171-1.529-1.622Z" transform="translate(-95.312 -38.895)" fill="#004cac"/>
      <path id="Tracciato_535" data-name="Tracciato 535" d="M246.368,101.525a3.265,3.265,0,0,1,2.425.948l-.461.672a2.81,2.81,0,0,0-1.938-.8A2.542,2.542,0,0,0,243.811,105a2.571,2.571,0,0,0,2.61,2.663,2.921,2.921,0,0,0,2.122-.936l.409.7a3.54,3.54,0,0,1-2.583,1.041,3.473,3.473,0,1,1,0-6.945" transform="translate(-96.994 -40.543)" fill="#004cac"/>
      <path id="Tracciato_536" data-name="Tracciato 536" d="M257.85,101.524a3.473,3.473,0,1,1-3.506,3.44,3.431,3.431,0,0,1,3.506-3.44m0,6.142a2.616,2.616,0,0,0,2.583-2.7,2.584,2.584,0,1,0-5.167,0,2.616,2.616,0,0,0,2.583,2.7" transform="translate(-101.569 -40.542)" fill="#004cac"/>
      <rect id="Rettangolo_84" data-name="Rettangolo 84" width="3.11" height="3.916" transform="translate(133.982 22.391)" fill="#009ebd"/>
      <rect id="Rettangolo_85" data-name="Rettangolo 85" width="3.11" height="3.916" transform="translate(154.976 22.391)" fill="#009ebd"/>
      <path id="Tracciato_537" data-name="Tracciato 537" d="M224.166,63.093c-.457,0-.661-.2-.661-.661V47.886c0-1.856-.828-2.684-2.683-2.684h-9.365v-.5c0-4.221,2.661-4.852,4.247-4.852a5.488,5.488,0,0,1,.964.076l.268.053V37.056l-.188-.031a8.489,8.489,0,0,0-1.287-.084c-2.164,0-7.2.756-7.2,7.761v.5h-2.539v2.747h2.539V63.093h-5.094c-.458,0-.661-.2-.661-.661V47.886c0-1.856-.828-2.684-2.684-2.684h-4.8c-1.94,0-2.744.365-3.4,2.412L187.443,60.47c-.163.508-.306,1.06-.408,1.484-.123-.431-.288-.992-.453-1.486l-5.007-15.185h-3.066L173.5,60.467c-.168.506-.338,1.082-.462,1.515-.113-.434-.271-1.009-.44-1.514l-4.15-12.854c-.654-2.048-1.459-2.413-3.4-2.413h-1.636V48.03h.749c.7,0,1,.195,1.2.772l5.855,17.119H174.6l4.967-14.575c.186-.518.353-1.081.471-1.508.112.426.268.987.434,1.505l5.009,14.578h3.344L194.681,48.8a1.057,1.057,0,0,1,1.2-.773h2.781a.586.586,0,0,1,.661.661V63.238c0,1.855.828,2.683,2.684,2.683h9.453V47.949h8.2a.586.586,0,0,1,.661.661V63.238c0,1.855.828,2.683,2.684,2.683h3.086V63.093Z" transform="translate(-65.258 -14.752)" fill="#009ebd"/>
      <rect id="Rettangolo_86" data-name="Rettangolo 86" width="3.11" height="3.916" transform="translate(2.498 22.391)" fill="#004cac"/>
      <path id="Tracciato_538" data-name="Tracciato 538" d="M17.816,59.2c-2.528-1-4.712-1.861-4.712-3.763,0-2.245,2.332-2.716,4.288-2.716,1.07,0,3.28.447,3.28,1.83v1.192H23.7V53.781c0-2.856-3.821-3.892-6.39-3.892-4.588,0-7.439,2.186-7.439,5.705,0,3.731,3.529,5.151,6.643,6.4,2.533,1.019,4.721,1.9,4.721,3.751,0,2.15-2.1,2.958-3.9,3l-10.9,0c-.458,0-.661-.2-.661-.661V53.055c0-1.855-.828-2.683-2.683-2.683H0V53.2H1.918a.586.586,0,0,1,.661.661V68.892c0,1.855.828,2.683,2.683,2.683H17.17c4.228-.008,7.3-2.492,7.3-5.906,0-3.845-3.534-5.241-6.652-6.472" transform="translate(0 -19.922)" fill="#004cac"/>
      <path id="Tracciato_539" data-name="Tracciato 539" d="M84.408,64.031c-.457,0-.661-.2-.661-.661V53.74c0-5.514-2.235-8.083-7.035-8.083A8.938,8.938,0,0,0,68.9,49.99c.009-.217.015-.462.015-.723V40.684c0-1.8-.828-2.6-2.683-2.6H63.149v2.828h1.918a.586.586,0,0,1,.661.661V64.031H54.3L54.094,64a7.624,7.624,0,0,1-7.017-7.964c0-4.609,3.21-7.955,7.633-7.955,1.582,0,4.409.76,4.409,2.273v1.395h3.029V49.71c0-3.3-4.562-4.537-7.438-4.537a10.645,10.645,0,0,0-10.9,10.863A10.4,10.4,0,0,0,53.85,66.821v.038H68.919V56.923a9.261,9.261,0,0,1,.314-2.641,7.482,7.482,0,0,1,7.117-5.6c3.5,0,4.207,2.211,4.207,5.778v9.712c0,1.855.828,2.683,2.684,2.683h2.95V64.031Z" transform="translate(-17.493 -15.207)" fill="#004cac"/>
      <rect id="Rettangolo_87" data-name="Rettangolo 87" width="3.11" height="3.916" transform="translate(71.848 22.391)" fill="#004cac"/>
      <path id="Tracciato_540" data-name="Tracciato 540" d="M143.038,68.264c-.458,0-.661-.2-.661-.661V57.891c0-3.435-.846-8-8.164-8-1.9,0-6.834.656-6.834,3.65V55.7h3.07V54.184c0-1.263,2.757-1.548,3.724-1.548,3.654,0,5.013,1.49,5.013,5.5l-.9.016c-8.383,0-12.636,2.421-12.636,7.2a5.8,5.8,0,0,0,1.024,3.4h-4.784c-.457,0-.66-.2-.66-.661V53.056c0-1.856-.828-2.684-2.684-2.684h-3.086V53.2h1.917a.586.586,0,0,1,.662.661V68.892c0,1.855.827,2.683,2.683,2.683h12.27V68.747h-.434a3.665,3.665,0,0,1-3.636-3.564c0-4.409,6.535-4.409,9.325-4.409h.943V68.5c.014,1.795.951,2.595,2.764,2.595h3.006V68.264Z" transform="translate(-46.106 -19.922)" fill="#004cac"/>
      <path id="Tracciato_541" data-name="Tracciato 541" d="M268.374,34.829c0,.022,0,.041.006.062h3.206c0-.02.006-.04.006-.061a13.392,13.392,0,0,0-13.4-13.406c-.033,0-.064.007-.1.01v3.2c.032,0,.062.01.1.01a10.173,10.173,0,0,1,10.187,10.187" transform="translate(-103.065 -8.555)" fill="#009ebd"/>
      <path id="Tracciato_542" data-name="Tracciato 542" d="M274.809,30.55c0,.022.005.041.007.062h3.205c0-.02.006-.041.006-.062a19.819,19.819,0,0,0-19.839-19.839c-.032,0-.064.006-.1.009v3.2c.032,0,.063.01.1.01A16.6,16.6,0,0,1,274.809,30.55" transform="translate(-103.065 -4.277)" fill="#009ebd"/>
      <path id="Tracciato_543" data-name="Tracciato 543" d="M281.243,26.272c0,.022,0,.041.007.062h3.2c0-.021.006-.041.006-.062A26.245,26.245,0,0,0,258.188,0c-.032,0-.064.007-.1.01v3.2c.032,0,.063.01.1.01a23.029,23.029,0,0,1,23.055,23.055" transform="translate(-103.065 0)" fill="#009ebd"/>
    </g>
  </g>
</svg>
