<svg xmlns="http://www.w3.org/2000/svg" xmlns:xlink="http://www.w3.org/1999/xlink" width="144.849" height="45.823" viewBox="0 0 144.849 45.823">
  <defs>
    <clipPath id="clip-path">
      <rect id="Rettangolo_108" data-name="Rettangolo 108" width="16.672" height="38.802" fill="#00abc8"/>
    </clipPath>
  </defs>
  <g id="Raggruppa_474" data-name="Raggruppa 474" transform="translate(-1007.826 -547)">
    <path id="Tracciato_635" data-name="Tracciato 635" d="M2056.012,3113H1933v37.847h45.822" transform="translate(3085.174 3704.868) rotate(180)" fill="none" stroke="#4ca8c4" stroke-width="1"/>
    <text id="_800_033_795" data-name="800 033 795" transform="translate(1086.162 580)" fill="#00abc8" font-size="25" font-family="AlegreyaSans-Bold, Alegreya Sans" font-weight="700"><tspan x="-57.088" y="0">800 033 795</tspan></text>
    <text id="numero_verde" data-name="numero verde" transform="translate(1060.162 557)" fill="#00abc8" font-size="11" font-family="AlegreyaSans-Bold, Alegreya Sans" font-weight="700"><tspan x="-30.624" y="0">numero verde</tspan></text>
    <g id="Raggruppa_472" data-name="Raggruppa 472" transform="translate(1007.826 554.021)">
      <g id="Raggruppa_471" data-name="Raggruppa 471" clip-path="url(#clip-path)">
        <path id="Tracciato_636" data-name="Tracciato 636" d="M16.671,2.434l-.094,5.149a2.261,2.261,0,0,1-2.434,2.434l-4.962.094A15.689,15.689,0,0,0,6.56,19.287a15.887,15.887,0,0,0,2.622,9.362H14.05a2.477,2.477,0,0,1,2.434,2.434v5.243A2.262,2.262,0,0,1,14.05,38.76c-1.685,0-3.464.094-5.243,0-5.056,0-8.613-8.988-8.8-18.538C-.181,10.3,3.377,0,8.994,0h5.243a2.477,2.477,0,0,1,2.434,2.434Z" transform="translate(0)" fill="#00abc8" fill-rule="evenodd"/>
      </g>
    </g>
  </g>
</svg>
