<?xml version="1.0" encoding="UTF-8"?><svg xmlns="http://www.w3.org/2000/svg" viewBox="0 0 1400 179.09"><defs><style>.d{fill:#24aac5;}</style></defs><g id="a"/><g id="b"><g id="c"><g><path class="d" d="M0,123.97H798.72c9.16-.12,17.75-3.14,24.22-9.61,6.54-6.54,10.16-15.24,10.2-24.51,.05-24.02,9.4-46.57,26.34-63.51C876.35,9.46,898.78,.13,922.69,0c24.02,.05,46.58,9.4,63.52,26.34,16.87,16.87,26.2,39.3,26.33,63.21,.12,9.16,3.74,17.75,10.21,24.22,6.54,6.54,15.24,10.16,24.51,10.2h352.74v11.03h-352.74c-12.21-.04-23.69-4.81-32.31-13.44-8.56-8.56-13.32-19.91-13.44-32.01-.13-20.95-8.31-40.62-23.1-55.41-14.86-14.86-34.65-23.07-55.72-23.11-20.95,.13-40.62,8.31-55.41,23.1-14.86,14.86-23.07,34.64-23.11,55.71-.04,12.21-4.81,23.68-13.44,32.31-8.56,8.56-19.91,12.72-32.01,12.85H0v-11.03Z"/><path class="d" d="M0,146.01H798.72c15.06-.12,29.18-5.42,39.81-16.05,10.7-10.7,16.61-24.94,16.66-40.11,.05-18.12,7.11-35.13,19.89-47.91,12.7-12.7,29.6-19.75,47.61-19.88,18.12,.05,35.13,7.11,47.91,19.89,12.7,12.7,19.75,29.6,19.88,47.61,.12,15.06,6.03,29.18,16.66,39.81,10.7,10.7,24.94,16.6,40.11,16.65h352.74v11.04h-352.74c-18.12-.05-35.13-7.11-47.91-19.89-12.7-12.7-19.75-29.6-19.88-47.61-.12-15.06-6.02-29.18-16.65-39.81-10.7-10.7-24.94-16.61-40.11-16.66-15.06,.12-29.18,6.02-39.81,16.65-10.7,10.7-16.61,24.94-16.66,40.11-.05,18.12-7.11,35.13-19.89,47.91-12.7,12.7-29.6,19.16-47.61,19.29H0v-11.04Z"/><path class="d" d="M0,168.09H798.72c20.95-.13,40.62-7.75,55.41-22.54,14.86-14.86,23.07-34.64,23.11-55.71,.04-12.21,4.81-23.68,13.44-32.31,8.56-8.56,19.91-13.31,32.01-13.43,12.21,.04,23.69,4.81,32.31,13.44,8.56,8.56,13.31,19.91,13.43,32.01,.13,20.96,8.32,40.62,23.11,55.41,14.86,14.86,34.64,23.09,55.71,23.13h352.74v11.01h-352.74c-24.02-.05-46.57-9.4-63.51-26.34-16.87-16.87-26.21-39.3-26.34-63.21-.12-9.16-3.73-17.75-10.2-24.22-6.54-6.54-15.24-10.16-24.52-10.2-9.16,.12-17.75,3.73-24.22,10.2-6.54,6.54-10.16,15.24-10.21,24.51-.05,24.02-9.4,46.57-26.34,63.51-16.87,16.87-39.3,25.62-63.21,25.74H0v-11.01Z"/></g></g></g></svg>