<svg xmlns="http://www.w3.org/2000/svg" xmlns:xlink="http://www.w3.org/1999/xlink" width="685" height="147.512" viewBox="0 0 685 147.512">
  <defs>
    <clipPath id="clip-path">
      <rect id="Rettangolo_111" data-name="Rettangolo 111" width="685" height="147.512" fill="none"/>
    </clipPath>
  </defs>
  <g id="Raggruppa_521" data-name="Raggruppa 521" transform="translate(-219)">
    <g id="Raggruppa_484" data-name="Raggruppa 484" transform="translate(219)" clip-path="url(#clip-path)">
      <path id="Tracciato_643" data-name="Tracciato 643" d="M0,9.084H568.586A22.637,22.637,0,0,1,585.826,17a30.949,30.949,0,0,1,7.264,20.19c.037,19.787,6.69,38.358,18.749,52.31,12.009,13.893,27.973,21.581,45,21.686,17.1-.043,33.156-7.739,45.215-21.692C714.057,75.6,720.7,57.132,720.792,37.437a30.937,30.937,0,0,1,7.267-19.948,23.123,23.123,0,0,1,17.451-8.4H996.618V0H745.511c-8.694.034-16.861,3.963-23,11.067a40.722,40.722,0,0,0-9.567,26.369c-.091,17.259-5.917,33.455-16.445,45.638-10.578,12.239-24.665,19-39.664,19.034-14.917-.106-28.915-6.846-39.444-19.028-10.578-12.239-16.421-28.533-16.45-45.887a40.748,40.748,0,0,0-9.565-26.612A29.94,29.94,0,0,0,568.586,0H0Z" transform="translate(-311.618 36.321)" fill="#009ebd"/>
      <path id="Tracciato_644" data-name="Tracciato 644" d="M0,26.568H568.586a37.238,37.238,0,0,1,28.342,13.223,50.539,50.539,0,0,1,11.859,33.039c.037,14.927,5.06,28.938,14.159,39.464,9.044,10.464,21.071,16.267,33.893,16.373,12.9-.043,25.01-5.854,34.108-16.381C699.989,101.822,705,87.906,705.1,73.071A50.509,50.509,0,0,1,716.955,40.28c7.62-8.816,17.754-13.673,28.556-13.711H996.618V17.476H745.511c-12.9.044-25.011,5.856-34.109,16.383-9.044,10.464-14.062,24.378-14.155,39.212a50.51,50.51,0,0,1-11.853,32.794c-7.62,8.817-17.753,13.682-28.555,13.721-10.722-.1-20.776-4.96-28.343-13.716a50.54,50.54,0,0,1-11.859-33.039c-.037-14.926-5.06-28.938-14.158-39.464a44.58,44.58,0,0,0-33.893-15.89H0Z" transform="translate(-311.618 0.684)" fill="#009ebd"/>
      <path id="Tracciato_645" data-name="Tracciato 645" d="M0,44.019H568.586c14.917.1,28.915,6.379,39.444,18.562,10.578,12.239,16.422,28.533,16.451,45.887a40.749,40.749,0,0,0,9.564,26.612c6.092,7.047,14.173,10.963,22.79,11.063,8.694-.034,16.863-3.962,23-11.066a40.716,40.716,0,0,0,9.562-26.369c.091-17.26,5.921-33.456,16.451-45.638,10.578-12.239,24.661-19.018,39.66-19.052H996.618V34.954H745.511C728.408,35,712.358,42.7,700.3,56.648c-12.009,13.893-18.659,32.366-18.75,52.061a30.931,30.931,0,0,1-7.261,19.947,22.105,22.105,0,0,1-34.693,0,30.95,30.95,0,0,1-7.266-20.19c-.038-19.788-6.69-38.358-18.749-52.31-12.009-13.894-27.973-21.1-45-21.2H0Z" transform="translate(-311.618 -34.954)" fill="#009ebd"/>
    </g>
  </g>
</svg>
