<svg xmlns="http://www.w3.org/2000/svg" xmlns:xlink="http://www.w3.org/1999/xlink" width="1400" height="189.54" viewBox="0 0 1400 189.54">
  <defs>
    <clipPath id="clip-path">
      <rect id="Rettangolo_141" data-name="Rettangolo 141" width="1400" height="167.355" fill="none"/>
    </clipPath>
    <clipPath id="clip-path-2">
      <rect id="Rettangolo_111" data-name="Rettangolo 111" width="1400" height="179.094" fill="none"/>
    </clipPath>
  </defs>
  <g id="Raggruppa_595" data-name="Raggruppa 595" transform="translate(0 -541.453)">
    <g id="Raggruppa_569" data-name="Raggruppa 569" transform="translate(0 563.638)">
      <g id="Raggruppa_568" data-name="Raggruppa 568" clip-path="url(#clip-path)">
        <path id="Tracciato_675" data-name="Tracciato 675" d="M1400,123.959H601.279c-15.061-.122-29.184-5.424-39.814-16.054a56.576,56.576,0,0,1-16.658-40.113A67.646,67.646,0,0,0,409.514,67.5a56.856,56.856,0,0,1-56.771,56.459H0v43.4H1400Z" fill="#fff"/>
      </g>
    </g>
    <g id="Raggruppa_484" data-name="Raggruppa 484" transform="translate(0 541.453)" opacity="0.15">
      <g id="Raggruppa_484-2" data-name="Raggruppa 484" clip-path="url(#clip-path-2)">
        <path id="Tracciato_643" data-name="Tracciato 643" d="M1400,123.967H601.279c-9.163-.12-17.746-3.143-24.218-9.615a34.653,34.653,0,0,1-10.2-24.513,89.7,89.7,0,0,0-179.39-.3,34.852,34.852,0,0,1-34.723,34.423H0V135H352.743a45.882,45.882,0,0,0,45.75-45.451,78.668,78.668,0,0,1,157.336.3,45.62,45.62,0,0,0,13.436,32.31c8.556,8.558,19.91,12.725,32.013,12.846H1400Z" transform="translate(0 0)" fill="#009ebd"/>
        <path id="Tracciato_644" data-name="Tracciato 644" d="M1400,141.435H601.279c-15.061-.122-29.184-5.424-39.814-16.054a56.576,56.576,0,0,1-16.658-40.113,67.646,67.646,0,0,0-135.292-.291,56.856,56.856,0,0,1-56.771,56.459H0v11.039H352.743a67.9,67.9,0,0,0,67.8-67.5,56.619,56.619,0,0,1,113.238.291,67.576,67.576,0,0,0,19.888,47.914c12.7,12.7,29.6,19.163,47.611,19.293H1400Z" transform="translate(0 4.572)" fill="#009ebd"/>
        <path id="Tracciato_645" data-name="Tracciato 645" d="M1400,158.943H601.279c-20.954-.127-40.619-7.745-55.409-22.536A78.488,78.488,0,0,1,522.759,80.7a45.6,45.6,0,0,0-91.195-.291,78.938,78.938,0,0,1-78.822,78.539H0v11.006H352.743A89.927,89.927,0,0,0,442.592,80.4a34.571,34.571,0,0,1,69.142.291,89.479,89.479,0,0,0,26.338,63.51c16.869,16.869,39.3,25.617,63.207,25.745H1400Z" transform="translate(0 9.145)" fill="#009ebd"/>
      </g>
    </g>
  </g>
</svg>
