<svg xmlns="http://www.w3.org/2000/svg" xmlns:xlink="http://www.w3.org/1999/xlink" width="1401.03" height="291.129" viewBox="0 0 1401.03 291.129">
  <defs>
    <clipPath id="clip-path">
      <rect id="Rettangolo_110" data-name="Rettangolo 110" width="1401.03" height="291.129" fill="none"/>
    </clipPath>
  </defs>
  <g id="Raggruppa_483" data-name="Raggruppa 483" opacity="0.15">
    <g id="Raggruppa_483-2" data-name="Raggruppa 483" clip-path="url(#clip-path)">
      <path id="Tracciato_640" data-name="Tracciato 640" d="M1063.458,154.131c-11.687.04-22.667,5.165-30.921,13.419a43.663,43.663,0,0,0-12.862,30.638,75.285,75.285,0,0,1-150.57-.283,43.894,43.894,0,0,0-43.5-43.774H708.363l-132.943.021a75.5,75.5,0,0,1-75.142-75.424A43.637,43.637,0,0,0,413,78.449a75.543,75.543,0,0,1-75.432,75.162H0v10.533H337.572a86.06,86.06,0,0,0,85.986-85.695,33.085,33.085,0,0,1,66.168.279,86.01,86.01,0,0,0,85.693,85.957H825.611a33.34,33.34,0,0,1,32.943,33.22,85.837,85.837,0,0,0,171.674.283,33.18,33.18,0,0,1,9.77-23.176c6.26-6.26,14.584-10.284,23.46-10.327H1401.03V154.131Z" transform="translate(0 7.248)" fill="#009ebd"/>
      <path id="Tracciato_641" data-name="Tracciato 641" d="M1063.458,136.642c-17.343.051-33.623,7.649-45.854,19.879a64.668,64.668,0,0,0-19.029,45.561,54.184,54.184,0,0,1-108.368-.279,64.988,64.988,0,0,0-64.6-64.888l-117.248-.273-132.943.034a54.419,54.419,0,0,1-54.044-54.324A64.737,64.737,0,0,0,391.9,82.073a54.411,54.411,0,0,1-54.33,54.03H0v10.564H337.572a64.98,64.98,0,0,0,64.883-64.595,54.184,54.184,0,0,1,108.368.279,64.988,64.988,0,0,0,64.6,64.888l132.943-.034H825.611a54.894,54.894,0,0,1,54.044,54.6,64.737,64.737,0,0,0,129.473.279,54.143,54.143,0,0,1,15.941-38.1c10.243-10.244,23.867-16.732,38.389-16.776H1401.03V136.642Z" transform="translate(0 3.624)" fill="#009ebd"/>
      <path id="Tracciato_642" data-name="Tracciato 642" d="M1063.458,119.2c-22.991.05-44.568,9.809-60.78,26.02A85.61,85.61,0,0,0,977.472,205.7a33.085,33.085,0,0,1-66.168-.279,86.01,86.01,0,0,0-85.693-85.957L708.363,119.2H575.419a33.336,33.336,0,0,1-32.942-33.219A85.838,85.838,0,0,0,370.8,85.692a33.353,33.353,0,0,1-33.23,32.943H0v10.554H337.572a43.909,43.909,0,0,0,43.782-43.5,75.285,75.285,0,0,1,150.57.284,43.9,43.9,0,0,0,43.5,43.774l132.943-.021H825.611a75.969,75.969,0,0,1,75.142,75.7,43.637,43.637,0,0,0,87.273.279,75.137,75.137,0,0,1,22.115-53.026c14.22-14.22,33.153-22.911,53.317-22.949H1401.03V119.2Z" fill="#009ebd"/>
    </g>
  </g>
</svg>
