<svg xmlns="http://www.w3.org/2000/svg" xmlns:xlink="http://www.w3.org/1999/xlink" width="1400" height="179.659" viewBox="0 0 1400 179.659">
  <defs>
    <clipPath id="clip-path">
      <rect id="Rettangolo_109" data-name="Rettangolo 109" width="1400" height="179.659" fill="none"/>
    </clipPath>
  </defs>
  <g id="Raggruppa_481" data-name="Raggruppa 481" opacity="0.15">
    <g id="Raggruppa_480" data-name="Raggruppa 480" clip-path="url(#clip-path)">
      <path id="Tracciato_637" data-name="Tracciato 637" d="M1400,124.768l-659.8-.214H601.279a34.837,34.837,0,0,1-34.422-34.713,89.7,89.7,0,0,0-179.39-.3,34.852,34.852,0,0,1-34.723,34.423H0v11.028H352.743a45.882,45.882,0,0,0,45.75-45.451,78.668,78.668,0,0,1,157.336.3,45.871,45.871,0,0,0,45.45,45.742l138.918-.023H1400Z" transform="translate(0 0)" fill="#009ebd"/>
      <path id="Tracciato_638" data-name="Tracciato 638" d="M1400,142.211,740.2,142l-138.918.035a56.865,56.865,0,0,1-56.472-56.765,67.646,67.646,0,0,0-135.292-.291,56.856,56.856,0,0,1-56.771,56.459H0v11.039H352.743a67.9,67.9,0,0,0,67.8-67.5,56.619,56.619,0,0,1,113.238.291,67.909,67.909,0,0,0,67.5,67.8l138.918-.035H1400Z" transform="translate(0 4.572)" fill="#009ebd"/>
      <path id="Tracciato_639" data-name="Tracciato 639" d="M1400,159.487H740.2l-138.918.021A78.89,78.89,0,0,1,522.759,80.7a45.6,45.6,0,0,0-91.195-.291,78.938,78.938,0,0,1-78.822,78.539H0v11.006H352.743A89.927,89.927,0,0,0,442.592,80.4a34.571,34.571,0,0,1,69.142.291,89.875,89.875,0,0,0,89.544,89.819H1400Z" transform="translate(0 9.145)" fill="#009ebd"/>
    </g>
  </g>
</svg>
