<svg id="Raggruppa_482" data-name="Raggruppa 482" xmlns="http://www.w3.org/2000/svg" xmlns:xlink="http://www.w3.org/1999/xlink" width="1400" height="179.659" viewBox="0 0 1400 179.659">
  <defs>
    <clipPath id="clip-path">
      <rect id="Rettangolo_109" data-name="Rettangolo 109" width="1400" height="179.659" fill="none"/>
    </clipPath>
  </defs>
  <g id="Raggruppa_480" data-name="Raggruppa 480" clip-path="url(#clip-path)">
    <path id="Tracciato_637" data-name="Tracciato 637" d="M0,124.768l659.8-.214H798.721a34.837,34.837,0,0,0,34.422-34.713,89.7,89.7,0,0,1,179.39-.3,34.852,34.852,0,0,0,34.723,34.423H1400v11.028H1047.257a45.882,45.882,0,0,1-45.75-45.451,78.668,78.668,0,0,0-157.336.3,45.871,45.871,0,0,1-45.45,45.742L659.8,135.558H0Z" transform="translate(0 0)" fill="#009ebd"/>
    <path id="Tracciato_638" data-name="Tracciato 638" d="M0,142.211,659.8,142l138.918.035a56.865,56.865,0,0,0,56.472-56.765,67.646,67.646,0,0,1,135.292-.291,56.856,56.856,0,0,0,56.771,56.459H1400v11.039H1047.257a67.9,67.9,0,0,1-67.8-67.5,56.619,56.619,0,0,0-113.238.291,67.909,67.909,0,0,1-67.5,67.8L659.8,153.036H0Z" transform="translate(0 4.572)" fill="#009ebd"/>
    <path id="Tracciato_639" data-name="Tracciato 639" d="M0,159.487H659.8l138.918.021A78.89,78.89,0,0,0,877.241,80.7a45.6,45.6,0,0,1,91.195-.291,78.938,78.938,0,0,0,78.822,78.539H1400v11.006H1047.257A89.928,89.928,0,0,1,957.407,80.4a34.571,34.571,0,0,0-69.142.291,89.875,89.875,0,0,1-89.544,89.819H0Z" transform="translate(0 9.145)" fill="#009ebd"/>
  </g>
</svg>
