<svg xmlns="http://www.w3.org/2000/svg" width="61.168" height="35.518" viewBox="0 0 61.168 35.518">
  <g id="Raggruppa_144" data-name="Raggruppa 144" transform="translate(0 0)">
    <path id="Tracciato_200" data-name="Tracciato 200" d="M1595.711,161.437l15.786,16.772a1.013,1.013,0,0,0,1.4.046,1.038,1.038,0,0,0,.046-1.4l-14.214-15.108h56.914a.987.987,0,0,0,0-1.973h-56.914l14.214-15.107a1.032,1.032,0,0,0-.046-1.4,1,1,0,0,0-1.4.046l-15.786,16.772a1.061,1.061,0,0,0,0,1.358Z" transform="translate(-1595.465 -142.997)" fill="#00abc8"/>
  </g>
</svg>
