<svg xmlns="http://www.w3.org/2000/svg" width="61.168" height="35.518" viewBox="0 0 61.168 35.518">
  <g id="Raggruppa_145" data-name="Raggruppa 145" transform="translate(61.168 35.518) rotate(180)">
    <path id="Tracciato_200" data-name="Tracciato 200" d="M.246,18.44,16.032,35.212a1.013,1.013,0,0,0,1.4.046,1.038,1.038,0,0,0,.046-1.4L3.268,18.748H60.182a.987.987,0,1,0,0-1.973H3.268L17.481,1.668a1.032,1.032,0,0,0-.046-1.4,1,1,0,0,0-1.4.046L.246,17.082a1.062,1.062,0,0,0,0,1.358Z" transform="translate(0 0)" fill="#00abc8"/>
  </g>
</svg>
