<svg xmlns="http://www.w3.org/2000/svg" width="20.589" height="20.589" viewBox="0 0 20.589 20.589">
  <g id="Raggruppa_484" data-name="Raggruppa 484" transform="translate(0 0)">
    <path id="Tracciato_81" data-name="Tracciato 81" d="M14.7,10.261a.959.959,0,0,1,1.351,0L20.769,15a.954.954,0,0,1,.03,1.317l-4.652,4.667A.954.954,0,1,1,14.8,19.635l3.954-4.014L14.7,11.607A.944.944,0,0,1,14.7,10.261Z" transform="translate(-6.644 -5.332)" fill="#fff"/>
    <path id="Tracciato_82" data-name="Tracciato 82" d="M3.375,13.669A10.294,10.294,0,1,0,13.669,3.375,10.293,10.293,0,0,0,3.375,13.669Zm1.584,0A8.707,8.707,0,0,1,19.826,7.513,8.707,8.707,0,1,1,7.513,19.826,8.636,8.636,0,0,1,4.959,13.669Z" transform="translate(-3.375 -3.375)" fill="#fff"/>
  </g>
</svg>
