<svg id="Raggruppa_425" data-name="Raggruppa 425" xmlns="http://www.w3.org/2000/svg" xmlns:xlink="http://www.w3.org/1999/xlink" width="74.951" height="73.027" viewBox="0 0 74.951 73.027">
  <defs>
    <clipPath id="clip-path">
      <rect id="Rettangolo_71" data-name="Rettangolo 71" width="74.951" height="73.027" fill="#00abc8"/>
    </clipPath>
  </defs>
  <g id="Raggruppa_424" data-name="Raggruppa 424" clip-path="url(#clip-path)">
    <path id="Tracciato_496" data-name="Tracciato 496" d="M68.064,0H6.887A6.89,6.89,0,0,0,0,6.887V45.208a6.89,6.89,0,0,0,6.887,6.887H13.35V72.058a.97.97,0,0,0,1.605.732L38.746,52.1H68.065a6.884,6.884,0,0,0,6.887-6.887V6.887A6.884,6.884,0,0,0,68.065,0ZM18.738,31.878A5.83,5.83,0,1,1,22.86,30.17,5.83,5.83,0,0,1,18.738,31.878Zm18.738,0A5.83,5.83,0,1,1,41.6,30.17a5.83,5.83,0,0,1-4.122,1.708m18.738,0a5.83,5.83,0,1,1,4.122-1.708,5.83,5.83,0,0,1-4.122,1.708" transform="translate(0 0)" fill="#00abc8"/>
  </g>
</svg>
