<svg id="Raggruppa_459" data-name="Raggruppa 459" xmlns="http://www.w3.org/2000/svg" xmlns:xlink="http://www.w3.org/1999/xlink" width="50" height="50" viewBox="0 0 50 50">
  <defs>
    <clipPath id="clip-path">
      <rect id="Rettangolo_101" data-name="Rettangolo 101" width="50" height="50" fill="#fff"/>
    </clipPath>
  </defs>
  <g id="Raggruppa_459-2" data-name="Raggruppa 459" clip-path="url(#clip-path)">
    <path id="Tracciato_614" data-name="Tracciato 614" d="M42.678,7.322A25,25,0,1,0,7.322,42.678,25,25,0,1,0,42.678,7.322M25.933,1.886a23.149,23.149,0,0,1,5.62.918l-5.62,16.547ZM41.358,41.358A23.134,23.134,0,1,1,8.642,8.642,22.967,22.967,0,0,1,24.067,1.886V25a.933.933,0,0,0,1.817.3L33.321,3.4a23.146,23.146,0,0,1,8.037,37.957" transform="translate(0 0)" fill="#fff"/>
  </g>
</svg>
