<svg id="icon-fibra" xmlns="http://www.w3.org/2000/svg" width="27.371" height="27.875" viewBox="0 0 27.371 27.875">
  <g id="cerchio">
    <g id="Raggruppa_625" data-name="Raggruppa 625">
      <path id="Fill-1" d="M13.686,27.875A13.813,13.813,0,0,0,27.371,13.938,13.813,13.813,0,0,0,13.686,0,13.813,13.813,0,0,0,0,13.938,13.813,13.813,0,0,0,13.686,27.875" fill="#42ab34"/>
    </g>
  </g>
  <path id="Fill-4" d="M55.034,43.237V32.932c0-.223.015-.223.64-.223H61.9c.209,0,.253.03.253.789v.119c0,.73-.06.819-.253.819H57.209v2.71h4.006c.208,0,.253.03.253.789v.119c0,.73-.06.819-.253.819H57.209v4.363c0,.179-.134.194-1.013.194h-.179c-.938,0-.983,0-.983-.194" transform="translate(-44.531 -26.466)" fill="#fefefe"/>
  <path id="Fill-6" d="M39.391,103.906V99.765c0-.053.053-.059.249-.059h2.391c.071,0,.089.018.089.267v.041c0,.237-.024.273-.089.273h-1.91v1.24h1.625c.071,0,.083.018.083.267v.036c0,.243-.018.279-.083.279H40.121v1.8c0,.065-.048.071-.338.071h-.059c-.308,0-.332-.006-.332-.071" transform="translate(-31.873 -80.676)" fill="#fefefe"/>
  <path id="Fill-8" d="M55.65,102.643V99.665c0-.059.024-.077.326-.077h.036c.285,0,.32.018.32.077v2.978c0,.053-.036.077-.32.077h-.036c-.308,0-.326-.024-.326-.077m-.095-4.052a.438.438,0,1,1,.128.311.439.439,0,0,1-.128-.311" transform="translate(-44.952 -79.419)" fill="#fefefe"/>
  <path id="Fill-10" d="M65.137,101.357c0-.629-.214-.985-.706-.985a.775.775,0,0,0-.534.19c-.107.113-.113.225-.113.5v1.317a1.516,1.516,0,0,0,.481.071c.629,0,.872-.4.872-1.092m-1.952,1.477a.132.132,0,0,1-.083-.142V98.54c0-.059.03-.077.326-.077h.036c.273,0,.32.018.32.077v1.56a1.137,1.137,0,0,1,.819-.32c.807,0,1.24.647,1.24,1.566,0,1.109-.546,1.685-1.584,1.685a2.938,2.938,0,0,1-1.074-.2" transform="translate(-51.058 -79.67)" fill="#fefefe"/>
  <path id="Fill-12" d="M79.952,108.5v-1.768c0-.421-.012-.878-.03-1.2-.006-.065.018-.089.3-.089h.036c.249,0,.3.012.3.065.012.107.042.4.053.635.184-.487.469-.753.836-.753a.455.455,0,0,1,.16.024c.059.024.059.053.059.243v.071c0,.249-.024.273-.083.279a.892.892,0,0,0-.706.391,2.261,2.261,0,0,0-.243,1.305v.795c0,.059-.036.077-.32.077h-.03c-.314,0-.332-.018-.332-.077" transform="translate(-64.668 -85.277)" fill="#fefefe"/>
  <path id="Fill-14" d="M91.862,107.828a.734.734,0,0,0,.125-.516V106.3a.723.723,0,0,0-.611-.344c-.481,0-.736.391-.736,1.056,0,.558.166,1.014.718,1.014a.641.641,0,0,0,.5-.2m-1.928-.783c0-1.074.587-1.685,1.323-1.685a.957.957,0,0,1,.789.374l.024-.243c.006-.053.036-.071.3-.071H92.4c.249,0,.279.018.279.077s0,.119-.006.285c-.006.243-.006.575-.006.872v.516c0,.481.018.943.042,1.293.006.071-.006.089-.279.089h-.024c-.249,0-.285-.018-.3-.071a1.348,1.348,0,0,1-.042-.249,1.117,1.117,0,0,1-.86.38c-.813,0-1.269-.629-1.269-1.566" transform="translate(-72.77 -85.251)" fill="#fefefe"/>
</svg>
