<svg xmlns="http://www.w3.org/2000/svg" width="20" height="22.055" viewBox="0 0 20 22.055">
  <path id="Icon_simple-email" data-name="Icon simple-email" d="M21.656,10.179a11.374,11.374,0,0,1-.367,2.467,7.139,7.139,0,0,1-.959,2.167A5.062,5.062,0,0,1,18.7,16.352a4.59,4.59,0,0,1-2.375.586,3.442,3.442,0,0,1-1.717-.42,2.941,2.941,0,0,1-1.16-1.189,3.678,3.678,0,0,1-3.112,1.563A3.164,3.164,0,0,1,7.623,15.43a4.782,4.782,0,0,1-.675-1.692A7.3,7.3,0,0,1,6.86,11.53a10.256,10.256,0,0,1,.673-2.7A7.35,7.35,0,0,1,8.776,6.755a5.259,5.259,0,0,1,1.709-1.32,4.769,4.769,0,0,1,2.078-.462,6.462,6.462,0,0,1,1.243.106,5.088,5.088,0,0,1,.965.289,5.217,5.217,0,0,1,.8.422c.244.157.489.32.733.485l-.6,6.946a2.309,2.309,0,0,0,.018.813,1.138,1.138,0,0,0,.248.5.893.893,0,0,0,.4.262,1.494,1.494,0,0,0,1.414-.278,3.014,3.014,0,0,0,.758-.965,6.213,6.213,0,0,0,.51-1.45,9.948,9.948,0,0,0,.223-1.805,11.538,11.538,0,0,0-.284-3.374,6.706,6.706,0,0,0-1.249-2.61A5.8,5.8,0,0,0,15.5,2.634a8.124,8.124,0,0,0-3.261-.6,7.2,7.2,0,0,0-3.225.7,7.4,7.4,0,0,0-2.45,1.949,9.353,9.353,0,0,0-1.6,2.931,13.21,13.21,0,0,0-.675,3.652A12.145,12.145,0,0,0,4.631,15,6.731,6.731,0,0,0,5.993,17.67a5.682,5.682,0,0,0,2.307,1.6,8.85,8.85,0,0,0,3.184.532,10.9,10.9,0,0,0,2.089-.225c.345-.069.671-.152.983-.243a7.4,7.4,0,0,0,.846-.3L15.839,21a4.85,4.85,0,0,1-.947.469,9.114,9.114,0,0,1-1.119.324,10.92,10.92,0,0,1-2.337.262,12.258,12.258,0,0,1-4.261-.686,7.843,7.843,0,0,1-3.106-2.042A8.578,8.578,0,0,1,2.2,15.954a14.385,14.385,0,0,1-.521-4.682,14.278,14.278,0,0,1,.9-4.493A11.119,11.119,0,0,1,4.736,3.21,9.835,9.835,0,0,1,8.029.854,10.308,10.308,0,0,1,12.293,0a10.762,10.762,0,0,1,4.132.74,8.036,8.036,0,0,1,2.982,2.081,8.541,8.541,0,0,1,1.77,3.215A12.294,12.294,0,0,1,21.656,10.179ZM9.82,11.53a4.688,4.688,0,0,0,.243,2.325,1.247,1.247,0,0,0,1.2.786,1.324,1.324,0,0,0,.411-.076,1.465,1.465,0,0,0,.473-.284,2.523,2.523,0,0,0,.48-.579,4.442,4.442,0,0,0,.441-.979l.471-5.4a2.816,2.816,0,0,0-.733-.1,2.535,2.535,0,0,0-1.22.28,2.415,2.415,0,0,0-.864.821,4.824,4.824,0,0,0-.573,1.351,11.457,11.457,0,0,0-.325,1.847Z" transform="translate(-1.67)" fill="#00c0d6"/>
</svg>
