<svg id="Raggruppa_468" data-name="Raggruppa 468" xmlns="http://www.w3.org/2000/svg" xmlns:xlink="http://www.w3.org/1999/xlink" width="40.563" height="53" viewBox="0 0 40.563 53">
  <defs>
    <clipPath id="clip-path">
      <rect id="Rettangolo_106" data-name="Rettangolo 106" width="40.562" height="53" fill="#fff"/>
    </clipPath>
  </defs>
  <g id="Raggruppa_467" data-name="Raggruppa 467" clip-path="url(#clip-path)">
    <path id="Tracciato_631" data-name="Tracciato 631" d="M5.735,35.273l13.8,17.366a.95.95,0,0,0,1.488,0L34.762,35.355l.036-.05.152-.186a25.183,25.183,0,0,0,5.6-14.8,19.12,19.12,0,0,0-5.675-14.3,20.694,20.694,0,0,0-29.189,0A19.119,19.119,0,0,0,.013,20.316,25.186,25.186,0,0,0,5.477,34.951M5.752,8.785l.266-.329H5.937l1.1-1.093a18.757,18.757,0,0,1,26.5,0c6.907,6.906,6.877,17.835-.071,26.578L20.281,50.524,7.1,33.941C.673,25.851.13,15.741,5.752,8.785" transform="translate(0 0.001)" fill="#fff"/>
    <path id="Tracciato_632" data-name="Tracciato 632" d="M114.589,125.463h0a7.575,7.575,0,1,0-5.349-2.219,7.519,7.519,0,0,0,5.349,2.219m-.007-13.234h.008a5.47,5.47,0,1,1-.008,0" transform="translate(-94.307 -97.221)" fill="#fff"/>
  </g>
</svg>
