<svg id="Raggruppa_466" data-name="Raggruppa 466" xmlns="http://www.w3.org/2000/svg" xmlns:xlink="http://www.w3.org/1999/xlink" width="50" height="50" viewBox="0 0 50 50">
  <defs>
    <clipPath id="clip-path">
      <rect id="Rettangolo_105" data-name="Rettangolo 105" width="50" height="50" fill="#fff"/>
    </clipPath>
  </defs>
  <g id="Raggruppa_465" data-name="Raggruppa 465" clip-path="url(#clip-path)">
    <path id="Tracciato_628" data-name="Tracciato 628" d="M42.676,7.324A25,25,0,1,0,7.324,42.676,25,25,0,1,0,42.676,7.324M25,1.817A23.182,23.182,0,0,1,41.392,41.392,23.182,23.182,0,1,1,8.608,8.608,23.032,23.032,0,0,1,25,1.817" fill="#fff"/>
    <path id="Tracciato_629" data-name="Tracciato 629" d="M37.464,67.785A21.378,21.378,0,1,0,31.2,52.665a21.243,21.243,0,0,0,6.265,15.12M52.584,33.1a19.569,19.569,0,1,1-13.838,5.732A19.442,19.442,0,0,1,52.584,33.1" transform="translate(-27.584 -27.656)" fill="#fff"/>
    <path id="Tracciato_630" data-name="Tracciato 630" d="M131.12,107.83a8.07,8.07,0,0,0-4.779,1.37,7.789,7.789,0,0,0-2.079,2.3,7.318,7.318,0,0,0-1.117,2.934H134.7l-.457,2.263H122.873c-.01.233-.019.466-.019.68,0,.874.01,1.389.019,1.564h10.9l-.476,2.273H123.223a7.657,7.657,0,0,0,3.42,5.508,8.09,8.09,0,0,0,4.216,1.166,6.965,6.965,0,0,0,4.944-1.661v3.488a10.884,10.884,0,0,1-4.673.981q-7.649,0-10.346-6.363a17.949,17.949,0,0,1-.933-3.118h-2.594l.476-2.273h1.778c-.039-.476-.049-.991-.049-1.545,0-.223.01-.457.019-.69h-2.225l.476-2.264H119.7a10.744,10.744,0,0,1,5.469-7.927,12.349,12.349,0,0,1,6.013-1.5,9.7,9.7,0,0,1,5.3,1.37l-.68,3.148a7.185,7.185,0,0,0-4.692-1.71Z" transform="translate(-103.673 -92.855)" fill="#fff"/>
  </g>
</svg>
