<svg id="Raggruppa_598" data-name="Raggruppa 598" xmlns="http://www.w3.org/2000/svg" xmlns:xlink="http://www.w3.org/1999/xlink" width="28.416" height="49.935" viewBox="0 0 28.416 49.935">
  <defs>
    <clipPath id="clip-path">
      <rect id="Rettangolo_152" data-name="Rettangolo 152" width="28.416" height="49.935" fill="#005cb9"/>
    </clipPath>
  </defs>
  <g id="Raggruppa_597" data-name="Raggruppa 597" clip-path="url(#clip-path)">
    <path id="Tracciato_683" data-name="Tracciato 683" d="M28.416.872a.834.834,0,0,0-.834-.834H18.059a.834.834,0,0,0-.834.832L17.2,17.445l-6-16.891A.834.834,0,0,0,10.408,0h0L.842.006H.825c-.027,0-.053,0-.08,0l-.027,0-.026,0L.651.027.628.032A.844.844,0,0,0,.542.059l-.011,0C.507.073.483.084.46.1L.439.106C.417.118.4.13.376.144L.361.154a.832.832,0,0,0-.07.054L.276.221Q.25.245.226.271L.208.29A.831.831,0,0,0,.1.437L.094.457Q.077.49.063.524L.056.541A.787.787,0,0,0,.028.627l0,.013C.019.665.014.689.01.714c0,.009,0,.017,0,.026S0,.786,0,.808C0,.816,0,.824,0,.831S0,.838,0,.841L.032,49.1a.834.834,0,0,0,.834.833l.068,0,9.447-.768a.834.834,0,0,0,.766-.825l.108-15.719,5.681,15.968a.834.834,0,0,0,.719.552l9.837.787.067,0a.831.831,0,0,0,.832-.833h0Zm-9.525.833h7.857l-.023,42.56L18.854,22.114ZM9.484,47.564,1.7,48.2,1.67,5.684,9.618,28.048Zm8.841-.044L2.015,1.673,9.82,1.668,26.34,48.161Z" fill="#005cb9"/>
  </g>
</svg>
