<svg id="Raggruppa_596" data-name="Raggruppa 596" xmlns="http://www.w3.org/2000/svg" xmlns:xlink="http://www.w3.org/1999/xlink" width="43.403" height="50" viewBox="0 0 43.403 50">
  <defs>
    <clipPath id="clip-path">
      <rect id="Rettangolo_137" data-name="Rettangolo 137" width="43.403" height="50" fill="#005cb9"/>
    </clipPath>
  </defs>
  <g id="Raggruppa_562" data-name="Raggruppa 562" clip-path="url(#clip-path)">
    <path id="Tracciato_665" data-name="Tracciato 665" d="M43.4,21.7A21.7,21.7,0,1,0,11.979,41.058l-2.6,7.813a.844.844,0,0,0,.087.781.79.79,0,0,0,.695.347H33.247a1.072,1.072,0,0,0,.695-.347.844.844,0,0,0,.087-.781l-2.6-7.813A21.673,21.673,0,0,0,43.4,21.7M32.032,48.264H11.372l2.17-6.424A21.341,21.341,0,0,0,21.7,43.4a23.12,23.12,0,0,0,8.16-1.562Zm-1.91-8.42a19.571,19.571,0,0,1-8.42,1.823,21.249,21.249,0,0,1-8.42-1.823A20.177,20.177,0,0,1,1.736,21.7a19.965,19.965,0,1,1,39.931,0A20.176,20.176,0,0,1,30.121,39.843Z" transform="translate(0 0.001)" fill="#005cb9"/>
    <path id="Tracciato_666" data-name="Tracciato 666" d="M97.111,85.3a11.806,11.806,0,1,0,11.806,11.806A11.818,11.818,0,0,0,97.111,85.3m0,21.875a10.07,10.07,0,1,1,10.07-10.07,10.077,10.077,0,0,1-10.07,10.07" transform="translate(-75.409 -75.409)" fill="#005cb9"/>
    <path id="Tracciato_667" data-name="Tracciato 667" d="M179.854,44.876l.087.087c.087,0,.087.087.174.087s.087,0,.174.087h.174a.788.788,0,0,0,.608-.26.937.937,0,0,0,.26-.608.522.522,0,0,0-.087-.347c0-.087-.087-.174-.174-.26a1.212,1.212,0,0,0-.781-.26c-.087,0-.087,0-.174.087-.087,0-.087.087-.174.087a.085.085,0,0,0-.087.087c-.087.087-.174.174-.174.26a.738.738,0,0,0,0,.694c0,.087.087.174.174.26" transform="translate(-158.76 -38.365)" fill="#005cb9"/>
  </g>
</svg>
