<svg id="Raggruppa_464" data-name="Raggruppa 464" xmlns="http://www.w3.org/2000/svg" xmlns:xlink="http://www.w3.org/1999/xlink" width="65.398" height="48" viewBox="0 0 65.398 48">
  <defs>
    <clipPath id="clip-path">
      <rect id="Rettangolo_104" data-name="Rettangolo 104" width="65.398" height="48" fill="#fff"/>
    </clipPath>
  </defs>
  <g id="Raggruppa_464-2" data-name="Raggruppa 464" clip-path="url(#clip-path)">
    <path id="Tracciato_626" data-name="Tracciato 626" d="M13.673,44.167A13.688,13.688,0,0,1,0,30.494a13.547,13.547,0,0,1,4.066-9.739A13.742,13.742,0,0,1,13.759,16.8c.256,0,.516.007.773.021l.345.019.115-.281a13.327,13.327,0,0,1,10.22-6.083l.293-.02.118-.269A16.881,16.881,0,0,1,41.04,0a16.639,16.639,0,0,1,2.213.149A17.007,17.007,0,0,1,58.025,18.072l-.02.308.271.148a13.649,13.649,0,0,1-6.551,25.637h-5.9a.99.99,0,0,1,0-1.979h5.9a11.7,11.7,0,0,0,4.93-22.306l-.045-.022-.048-.012a1.2,1.2,0,0,1-.665-1.122A14.782,14.782,0,0,0,43.085,2.139a14.883,14.883,0,0,0-1.96-.13,14.67,14.67,0,0,0-8.417,2.646,14.928,14.928,0,0,0-5.478,7.088l-.009.025-.007.026a1.137,1.137,0,0,1-1,.665A11.519,11.519,0,0,0,16.2,18.309l-.012.022a1.127,1.127,0,0,1-1.012.616,11.67,11.67,0,1,0-1.5,23.24h5.9a.915.915,0,0,1,.953.99,1.072,1.072,0,0,1-.241.7.9.9,0,0,1-.712.294Z" fill="#fff"/>
    <path id="Tracciato_627" data-name="Tracciato 627" d="M229.708,276.109a.992.992,0,0,1-.99-.99V261l-4.656,4.477a.99.99,0,0,1-1.686-.683.973.973,0,0,1,.284-.673l6.358-6.358a.988.988,0,0,1,.7-.283,1,1,0,0,1,.8.391l.017.021,6.213,6.213a.975.975,0,1,1-1.379,1.379L230.7,261v14.118a.992.992,0,0,1-.99.99" transform="translate(-197.009 -228.109)" fill="#fff"/>
  </g>
</svg>
