<svg id="Raggruppa_463" data-name="Raggruppa 463" xmlns="http://www.w3.org/2000/svg" xmlns:xlink="http://www.w3.org/1999/xlink" width="59.188" height="50" viewBox="0 0 59.188 50">
  <defs>
    <clipPath id="clip-path">
      <rect id="Rettangolo_103" data-name="Rettangolo 103" width="59.188" height="50" fill="#fff"/>
    </clipPath>
  </defs>
  <g id="Raggruppa_462" data-name="Raggruppa 462" clip-path="url(#clip-path)">
    <path id="Tracciato_619" data-name="Tracciato 619" d="M162.366,70.17a.941.941,0,1,1,0-1.882h8.876V44.31l-.265-.03a10.758,10.758,0,1,1,2.411,0l-.265.03V68.289H182a.941.941,0,0,1,0,1.882Zm9.816-45.451a8.875,8.875,0,1,0,8.876,8.876,8.886,8.886,0,0,0-8.876-8.876" transform="translate(-142.576 -20.17)" fill="#fff"/>
    <path id="Tracciato_620" data-name="Tracciato 620" d="M111.618,92.275a.944.944,0,0,1-.93-.811,19.082,19.082,0,0,1,0-5.292.943.943,0,0,1,.929-.81.962.962,0,0,1,.133.009.942.942,0,0,1,.8,1.062,17.189,17.189,0,0,0,0,4.769.943.943,0,0,1-.8,1.062.931.931,0,0,1-.132.01" transform="translate(-97.6 -75.395)" fill="#fff"/>
    <path id="Tracciato_621" data-name="Tracciato 621" d="M57.205,61.373a.937.937,0,0,1-.9-.664,25.4,25.4,0,0,1,0-15,.94.94,0,0,1,1.176-.623l.024.007a.941.941,0,0,1,.6,1.168,23.525,23.525,0,0,0,0,13.895.941.941,0,0,1-.622,1.176.948.948,0,0,1-.277.042" transform="translate(-48.731 -39.783)" fill="#fff"/>
    <path id="Tracciato_622" data-name="Tracciato 622" d="M3.56,26.851a.942.942,0,0,1-.862-.562A32.019,32.019,0,0,1,2.7.563a.941.941,0,1,1,1.722.758,30.127,30.127,0,0,0,0,24.209.942.942,0,0,1-.86,1.321" transform="translate(0 -0.001)" fill="#fff"/>
    <path id="Tracciato_623" data-name="Tracciato 623" d="M379.707,85.377a.944.944,0,0,1,.93.811,19.082,19.082,0,0,1,0,5.292.943.943,0,0,1-.929.81.961.961,0,0,1-.133-.009.942.942,0,0,1-.8-1.062,17.19,17.19,0,0,0,0-4.769.943.943,0,0,1,.8-1.062.931.931,0,0,1,.132-.01" transform="translate(-334.536 -75.408)" fill="#fff"/>
    <path id="Tracciato_624" data-name="Tracciato 624" d="M427.19,45.043a.937.937,0,0,1,.9.664,25.4,25.4,0,0,1,0,15,.94.94,0,0,1-1.176.623l-.024-.007a.941.941,0,0,1-.6-1.168,23.525,23.525,0,0,0,0-13.895.941.941,0,0,1,.622-1.176.948.948,0,0,1,.277-.042" transform="translate(-376.476 -39.783)" fill="#fff"/>
    <path id="Tracciato_625" data-name="Tracciato 625" d="M469.292,0a.942.942,0,0,1,.862.562,32.019,32.019,0,0,1,0,25.725.941.941,0,1,1-1.722-.758,30.127,30.127,0,0,0,0-24.209A.942.942,0,0,1,469.292,0" transform="translate(-413.663)" fill="#fff"/>
  </g>
</svg>
