<svg id="Raggruppa_10" data-name="Raggruppa 10" xmlns="http://www.w3.org/2000/svg" xmlns:xlink="http://www.w3.org/1999/xlink" width="23.744" height="23.746" viewBox="0 0 23.744 23.746">
  <defs>
    <clipPath id="clip-path">
      <rect id="Rettangolo_15" data-name="Rettangolo 15" width="23.744" height="23.746" fill="#4e4e4e"/>
    </clipPath>
  </defs>
  <g id="Raggruppa_9" data-name="Raggruppa 9" clip-path="url(#clip-path)">
    <path id="Tracciato_16" data-name="Tracciato 16" d="M23.622,23.029,17.5,16.912A10.087,10.087,0,0,0,10.082,0h-.073A10.082,10.082,0,1,0,13.22,19.666l.1-.032-.673-.673-.036.01a9.272,9.272,0,0,1-2.528.349A9.24,9.24,0,0,1,3.548,3.548,9.24,9.24,0,1,1,16.355,16.866l-.049.045,6.711,6.711a.424.424,0,1,0,.6-.594" transform="translate(0 0)" fill="#4e4e4e"/>
  </g>
</svg>
