<svg id="Raggruppa_602" data-name="Raggruppa 602" xmlns="http://www.w3.org/2000/svg" xmlns:xlink="http://www.w3.org/1999/xlink" width="37.542" height="39.885" viewBox="0 0 37.542 39.885">
  <defs>
    <clipPath id="clip-path">
      <rect id="Rettangolo_154" data-name="Rettangolo 154" width="37.542" height="39.885" fill="#005cb9"/>
    </clipPath>
  </defs>
  <g id="Raggruppa_601" data-name="Raggruppa 601" clip-path="url(#clip-path)">
    <path id="Tracciato_686" data-name="Tracciato 686" d="M22.279,39.885H2.785c-1.321,0-2.11-.927-2.11-2.481v-3.7a4.637,4.637,0,0,1,1.09-3.179,4.515,4.515,0,0,1,3.513-1.353h17.6c1.547,0,2.047-.613,2.047-.909,0-.387,0-1.035-2.567-1.617L11.177,24.235C3.864,22.634,0,18.563,0,12.462A11.814,11.814,0,0,1,3.619,3.583C6.118,1.239,9.748,0,14.116,0H33.689a2.384,2.384,0,0,1,2.492,2.492v3.7A4.31,4.31,0,0,1,31.5,10.8H14.573c-1.563,0-2.275.394-2.275.76,0,.519,0,.894,2.727,1.533l11.414,2.64h0c7.471,1.739,11.1,5.712,11.1,12.148a10.9,10.9,0,0,1-3.672,8.527c-2.661,2.308-6.561,3.478-11.59,3.478m-17-9.364c-2.689,0-3.254,1.732-3.254,3.184v3.7c0,1.133.5,1.133.761,1.133H22.279c4.7,0,8.3-1.059,10.707-3.149a9.593,9.593,0,0,0,3.207-7.508c0-5.794-3.2-9.236-10.059-10.834L14.718,14.406c-2.208-.518-3.769-1.025-3.769-2.847,0-.634.353-2.109,3.624-2.109H31.5a2.994,2.994,0,0,0,3.333-3.259v-3.7a1.051,1.051,0,0,0-1.143-1.143H14.116c-4.019,0-7.329,1.113-9.574,3.218a10.5,10.5,0,0,0-3.193,7.9c0,5.468,3.4,8.985,10.115,10.454L22.65,25.329c1.886.427,3.625,1.077,3.625,2.934a1.994,1.994,0,0,1-.9,1.6,4.218,4.218,0,0,1-2.493.663Z" transform="translate(0 0)" fill="#005cb9"/>
  </g>
</svg>
