<svg xmlns="http://www.w3.org/2000/svg" xmlns:xlink="http://www.w3.org/1999/xlink" width="55.565" height="53" viewBox="0 0 55.565 53">
  <defs>
    <clipPath id="clip-path">
      <rect id="Rettangolo_66" data-name="Rettangolo 66" width="55.565" height="53" fill="#fff"/>
    </clipPath>
  </defs>
  <g id="Raggruppa_416" data-name="Raggruppa 416" transform="translate(-0.482 0.026)">
    <g id="Raggruppa_415" data-name="Raggruppa 415" transform="translate(0.482 -0.026)" clip-path="url(#clip-path)">
      <path id="Tracciato_486" data-name="Tracciato 486" d="M55.8,24.713a6.772,6.772,0,0,0-6.026-6.584C49.289,8.057,40.571,0,29.894,0H25.908C15.232,0,6.514,8.056,6.026,18.127a6.992,6.992,0,0,0-3.978,1.88A6.429,6.429,0,0,0,0,24.713a6.828,6.828,0,0,0,6.975,6.653h3.491c2.941,6.276,9.85,10.455,17.436,10.455s14.492-4.178,17.436-10.455h2.494v8.554a8.779,8.779,0,0,1-8.968,8.554H33.881v-1.9a.974.974,0,0,0-1-.95H25.909a3.806,3.806,0,1,0,0,7.6h6.975a.974.974,0,0,0,1-.951v-1.9h4.982A10.73,10.73,0,0,0,49.825,39.921V31.292a6.986,6.986,0,0,0,3.93-1.873A6.425,6.425,0,0,0,55.8,24.713ZM31.887,51.327H25.908a1.9,1.9,0,1,1,0-3.8h5.979ZM25.908,1.9h3.986c9.554,0,17.365,7.167,17.886,16.158H45.336C42.4,11.783,35.486,7.6,27.9,7.6S13.409,11.782,10.465,18.06H8.021C8.542,9.069,16.353,1.9,25.906,1.9ZM6.975,29.466a4.877,4.877,0,0,1-4.982-4.752,4.586,4.586,0,0,1,1.465-3.361,5.036,5.036,0,0,1,3.517-1.391H9.708c-.011.034-.018.068-.028.1-.033.108-.059.216-.09.325-.1.347-.19.7-.265,1.049-.033.152-.061.3-.09.457q-.09.492-.148.989c-.017.142-.037.284-.05.426-.043.466-.07.933-.07,1.4s.027.938.069,1.4c.013.142.033.284.05.426q.058.5.148.991c.028.152.057.3.089.456.076.352.165.7.265,1.05.031.108.056.217.09.325.011.033.018.067.028.1ZM27.9,39.921c-7.019,0-13.4-3.962-15.864-9.854a13.981,13.981,0,0,1-.47-9.4q.2-.658.468-1.3c2.471-5.9,8.847-9.858,15.866-9.858s13.4,3.962,15.864,9.854a13.978,13.978,0,0,1,.47,9.4q-.2.658-.468,1.3c-2.471,5.9-8.847,9.858-15.866,9.858M48.827,29.466H46.094c.011-.034.018-.068.028-.1.034-.108.059-.218.091-.327.1-.347.189-.7.265-1.046.033-.152.061-.3.09-.457q.09-.492.148-.988c.017-.143.037-.285.05-.429.042-.466.069-.934.069-1.4s-.027-.938-.069-1.4c-.013-.143-.033-.284-.05-.426q-.058-.5-.148-.991c-.028-.152-.057-.3-.089-.456-.076-.352-.165-.7-.265-1.05-.031-.108-.057-.217-.09-.326-.011-.033-.018-.067-.028-.1h2.733a4.877,4.877,0,0,1,4.982,4.752,4.586,4.586,0,0,1-1.465,3.361A5.036,5.036,0,0,1,48.827,29.466Z" transform="translate(-0.26 0.021)" fill="#fff"/>
    </g>
  </g>
</svg>
