<svg id="Raggruppa_485" data-name="Raggruppa 485" xmlns="http://www.w3.org/2000/svg" xmlns:xlink="http://www.w3.org/1999/xlink" width="1400" height="179.094" viewBox="0 0 1400 179.094">
  <defs>
    <clipPath id="clip-path">
      <rect id="Rettangolo_111" data-name="Rettangolo 111" width="1400" height="179.094" fill="none"/>
    </clipPath>
  </defs>
  <g id="Raggruppa_484" data-name="Raggruppa 484" clip-path="url(#clip-path)">
    <path id="Tracciato_643" data-name="Tracciato 643" d="M0,123.967H798.721c9.163-.12,17.746-3.143,24.218-9.615a34.653,34.653,0,0,0,10.2-24.513,89.7,89.7,0,0,1,179.39-.3,34.852,34.852,0,0,0,34.724,34.423H1400V135H1047.257a45.882,45.882,0,0,1-45.75-45.451,78.668,78.668,0,0,0-157.336.3,45.62,45.62,0,0,1-13.436,32.31c-8.556,8.558-19.91,12.725-32.013,12.846H0Z" transform="translate(0 0)" fill="#009ebd"/>
    <path id="Tracciato_644" data-name="Tracciato 644" d="M0,141.435H798.721c15.061-.122,29.184-5.424,39.814-16.054a56.576,56.576,0,0,0,16.658-40.113,67.646,67.646,0,0,1,135.292-.291,56.856,56.856,0,0,0,56.771,56.459H1400v11.039H1047.257a67.9,67.9,0,0,1-67.8-67.5,56.619,56.619,0,0,0-113.238.291,67.576,67.576,0,0,1-19.888,47.914c-12.7,12.7-29.6,19.163-47.611,19.293H0Z" transform="translate(0 4.572)" fill="#009ebd"/>
    <path id="Tracciato_645" data-name="Tracciato 645" d="M0,158.943H798.721c20.954-.127,40.619-7.745,55.409-22.536A78.488,78.488,0,0,0,877.241,80.7a45.6,45.6,0,0,1,91.195-.291,78.938,78.938,0,0,0,78.822,78.539H1400v11.006H1047.257A89.927,89.927,0,0,1,957.408,80.4a34.571,34.571,0,0,0-69.142.291,89.479,89.479,0,0,1-26.338,63.51c-16.869,16.869-39.3,25.617-63.207,25.745H0Z" transform="translate(0 9.145)" fill="#009ebd"/>
  </g>
</svg>
