<svg id="Raggruppa_565" data-name="Raggruppa 565" xmlns="http://www.w3.org/2000/svg" xmlns:xlink="http://www.w3.org/1999/xlink" width="80" height="56.844" viewBox="0 0 80 56.844">
  <defs>
    <clipPath id="clip-path">
      <rect id="Rettangolo_138" data-name="Rettangolo 138" width="80" height="56.844" fill="#fff"/>
    </clipPath>
  </defs>
  <g id="Raggruppa_564" data-name="Raggruppa 564" clip-path="url(#clip-path)">
    <path id="Tracciato_668" data-name="Tracciato 668" d="M12.639,56.844a1.284,1.284,0,0,1-.916-.416,39.317,39.317,0,0,1,0-56.013A1.29,1.29,0,0,1,12.639,0a1.507,1.507,0,0,1,1.315.935,1.226,1.226,0,0,1-.323,1.4,36.631,36.631,0,0,0,0,52.174,1.22,1.22,0,0,1,.321,1.4,1.506,1.506,0,0,1-1.315.933" fill="#fff"/>
    <path id="Tracciato_669" data-name="Tracciato 669" d="M428.375,56.844a1.506,1.506,0,0,1-1.316-.936,1.214,1.214,0,0,1,.323-1.392,36.64,36.64,0,0,0,0-52.176,1.227,1.227,0,0,1-.321-1.4A1.506,1.506,0,0,1,428.375,0a1.29,1.29,0,0,1,.918.415,39.317,39.317,0,0,1,0,56.012,1.29,1.29,0,0,1-.917.415" transform="translate(-361.015 -0.002)" fill="#fff"/>
    <path id="Tracciato_670" data-name="Tracciato 670" d="M82.6,92.331a1.291,1.291,0,0,1-.918-.415,28.2,28.2,0,0,1,0-40.165,1.292,1.292,0,0,1,.919-.415,1.508,1.508,0,0,1,1.32.938,1.21,1.21,0,0,1-.327,1.388,25.509,25.509,0,0,0-.157,36.174l.155.155a1.227,1.227,0,0,1,.322,1.4,1.506,1.506,0,0,1-1.314.935" transform="translate(-61.962 -43.407)" fill="#fff"/>
    <path id="Tracciato_671" data-name="Tracciato 671" d="M376.519,92.325a1.511,1.511,0,0,1-1.318-.938,1.224,1.224,0,0,1,.321-1.4,25.5,25.5,0,0,0,0-36.327,1.22,1.22,0,0,1-.321-1.4,1.506,1.506,0,0,1,1.315-.933,1.285,1.285,0,0,1,.916.416,28.2,28.2,0,0,1,0,40.166,1.278,1.278,0,0,1-.913.415" transform="translate(-317.165 -43.401)" fill="#fff"/>
    <path id="Tracciato_672" data-name="Tracciato 672" d="M167.329,135.232a1.293,1.293,0,0,1-.922-.42,14.722,14.722,0,0,1,0-20.978,1.29,1.29,0,0,1,.917-.414,1.506,1.506,0,0,1,1.315.935,1.226,1.226,0,0,1-.323,1.4,12.036,12.036,0,0,0,0,17.14,1.225,1.225,0,0,1,.322,1.4,1.5,1.5,0,0,1-1.309.931Z" transform="translate(-136.99 -95.901)" fill="#fff"/>
    <path id="Tracciato_673" data-name="Tracciato 673" d="M313.818,135.233a1.5,1.5,0,0,1-1.31-.931,1.226,1.226,0,0,1,.323-1.4,12.036,12.036,0,0,0,0-17.14,1.226,1.226,0,0,1-.321-1.4,1.506,1.506,0,0,1,1.314-.935,1.291,1.291,0,0,1,.918.415,14.723,14.723,0,0,1,0,20.977,1.3,1.3,0,0,1-.923.42" transform="translate(-264.156 -95.901)" fill="#fff"/>
    <path id="Tracciato_674" data-name="Tracciato 674" d="M223.614,155.341a6.415,6.415,0,1,1-.069-12.828,6.364,6.364,0,0,1,5.98,4.007,6.416,6.416,0,0,1-5.91,8.821m.01-10.154a4.015,4.015,0,0,0-3.6,2.48,3.423,3.423,0,0,0,.873,3.871,3.635,3.635,0,0,0,2.581,1.119h0a4.008,4.008,0,0,0,3.59-2.469,3.435,3.435,0,0,0-.864-3.882,3.632,3.632,0,0,0-2.58-1.119" transform="translate(-183.55 -120.501)" fill="#fff"/>
  </g>
</svg>
